<svg width="640" height="767" viewBox="0 0 640 767" fill="none" xmlns="http://www.w3.org/2000/svg">
<g opacity="0.15">
<circle cx="390" cy="218" r="390" fill="#36536B"/>
<circle cx="390" cy="218" r="390" fill="#36536B"/>
<mask id="mask0_4005_3" style="mask-type:luminance" maskUnits="userSpaceOnUse" x="0" y="-172" width="780" height="780">
<circle cx="390" cy="218" r="390" fill="white"/>
</mask>
<g mask="url(#mask0_4005_3)">
</g>
</g>
<g filter="url(#filter0_d_4005_3)">
<path fill-rule="evenodd" clip-rule="evenodd" d="M152.776 162.569H344.009C362.35 162.569 377.217 176.805 377.217 194.365V629.635C377.217 647.195 362.35 661.431 344.009 661.431H152.776C134.436 661.431 119.568 647.195 119.568 629.635V194.365C119.568 176.805 134.436 162.569 152.776 162.569Z" fill="#213648"/>
</g>
<path opacity="0.595562" fill-rule="evenodd" clip-rule="evenodd" d="M344.749 162H151.923C142.92 162.549 134.617 166.657 127.015 174.324C131.904 170.056 140.625 164.345 152.155 164.345C152.155 164.345 336.83 164.345 344.517 164.345C356.046 164.345 364.767 170.056 369.656 174.324C362.054 166.657 353.751 162.549 344.749 162Z" fill="url(#paint0_linear_4005_3)" fill-opacity="0.65"/>
<path opacity="0.75" fill-rule="evenodd" clip-rule="evenodd" d="M371.999 624.671V196.982C371.999 185.507 367.782 181.264 365.266 178.541C362.75 175.817 362.643 174.427 366.258 176.484C369.873 178.541 377.103 184.531 377.103 196.982V624.671C377.103 637.122 369.873 643.112 366.258 645.169C362.643 647.225 362.75 645.836 365.266 643.112C367.782 640.388 371.999 636.146 371.999 624.671Z" fill="url(#paint1_linear_4005_3)"/>
<path opacity="0.75" fill-rule="evenodd" clip-rule="evenodd" d="M124.672 624.671V196.982C124.672 185.507 128.889 181.264 131.405 178.541C133.921 175.817 134.028 174.427 130.413 176.484C126.798 178.541 119.568 184.531 119.568 196.982V624.671C119.568 637.122 126.798 643.112 130.413 645.169C134.028 647.225 133.921 645.836 131.405 643.112C128.889 640.388 124.672 636.146 124.672 624.671Z" fill="url(#paint2_linear_4005_3)"/>
<path fill-rule="evenodd" clip-rule="evenodd" d="M117 265.556C117 264.452 117.895 263.556 119 263.556H119.965C121.069 263.556 121.965 264.452 121.965 265.556V325.907C121.965 327.012 121.069 327.907 119.965 327.907H119C117.895 327.907 117 327.012 117 325.907V265.556Z" fill="#2E423C"/>
<path fill-rule="evenodd" clip-rule="evenodd" d="M374.535 318.043C374.535 316.939 375.431 316.043 376.535 316.043H377.5C378.605 316.043 379.5 316.939 379.5 318.043V360.993C379.5 362.098 378.605 362.993 377.5 362.993H376.535C375.431 362.993 374.535 362.098 374.535 360.993V318.043Z" fill="#2E423C"/>
<g clip-path="url(#clip0_4005_3)">
<path fill-rule="evenodd" clip-rule="evenodd" d="M225.676 174.444L151.27 174.444C140.165 174.444 132.074 182.008 132.074 191.886V614.276C132.074 627.155 144.576 638.567 158.713 638.567H338.046C351.664 638.567 364.686 627.067 364.686 614.276V193.028C364.686 181.188 355.896 174.515 345.49 174.444L269.904 174.444C269.618 174.491 264.425 176.626 262.231 182.008C260.036 187.389 255.621 191.679 250.787 191.679H245.172C242.874 191.679 236.824 189.45 233.76 182.008C230.697 174.566 225.963 174.491 225.676 174.444Z" fill="white"/>
<mask id="mask1_4005_3" style="mask-type:luminance" maskUnits="userSpaceOnUse" x="132" y="174" width="233" height="465">
<path fill-rule="evenodd" clip-rule="evenodd" d="M225.676 174.444L151.27 174.444C140.165 174.444 132.074 182.008 132.074 191.886V614.276C132.074 627.155 144.576 638.567 158.713 638.567H338.046C351.664 638.567 364.686 627.067 364.686 614.276V193.028C364.686 181.188 355.896 174.515 345.49 174.444L269.904 174.444C269.618 174.491 264.425 176.626 262.231 182.008C260.036 187.389 255.621 191.679 250.787 191.679H245.172C242.874 191.679 236.824 189.45 233.76 182.008C230.697 174.566 225.963 174.491 225.676 174.444Z" fill="white"/>
</mask>
<g mask="url(#mask1_4005_3)">
<rect x="132" y="174.444" width="233" height="465" fill="url(#paint3_linear_4005_3)"/>
<path d="M211.504 303V285.672H207.376V283.032C208.699 283.032 209.765 282.909 210.576 282.664C211.397 282.408 212.011 282.045 212.416 281.576C212.821 281.096 213.061 280.525 213.136 279.864H216.24V303H211.504ZM221.496 303V300.696V299.512C221.496 298.339 221.714 297.325 222.152 296.472C222.589 295.608 223.165 294.861 223.88 294.232C224.605 293.592 225.394 293.032 226.248 292.552C227.112 292.072 227.976 291.619 228.84 291.192C229.704 290.765 230.493 290.339 231.208 289.912C231.933 289.475 232.514 288.989 232.952 288.456C233.389 287.923 233.608 287.293 233.608 286.568C233.608 285.64 233.282 284.883 232.632 284.296C231.992 283.709 231.112 283.416 229.992 283.416C228.829 283.416 227.842 283.752 227.032 284.424C226.221 285.096 225.72 286.109 225.528 287.464H221.064C221.085 285.992 221.426 284.659 222.088 283.464C222.76 282.259 223.762 281.304 225.096 280.6C226.429 279.896 228.104 279.544 230.12 279.544C231.848 279.544 233.336 279.837 234.584 280.424C235.842 281.011 236.813 281.827 237.496 282.872C238.178 283.917 238.52 285.139 238.52 286.536C238.52 287.699 238.306 288.701 237.88 289.544C237.453 290.387 236.888 291.107 236.184 291.704C235.48 292.301 234.706 292.824 233.864 293.272C233.021 293.72 232.178 294.136 231.336 294.52C230.504 294.904 229.736 295.299 229.032 295.704C228.328 296.099 227.762 296.547 227.336 297.048C226.909 297.549 226.696 298.152 226.696 298.856V299.064H238.488V303H221.496ZM246.704 286.856V291.864H241.584V286.856H246.704ZM246.704 297.912V302.904H241.584V297.912H246.704ZM260.451 279.864H265.043V293.96H268.611V297.88H265.043V303H260.547L260.563 297.88H249.907V294.04L260.451 279.864ZM254.227 293.96H260.563V285.48L254.227 293.96ZM279.435 303.352C277.995 303.352 276.651 303.075 275.403 302.52C274.155 301.965 273.137 301.187 272.347 300.184C271.558 299.171 271.115 297.987 271.019 296.632H275.467C275.659 297.528 276.086 298.259 276.747 298.824C277.409 299.379 278.241 299.656 279.243 299.656C280.353 299.656 281.323 299.395 282.155 298.872C282.998 298.349 283.627 297.517 284.043 296.376C284.47 295.235 284.619 293.741 284.491 291.896C284.193 292.461 283.777 292.957 283.243 293.384C282.721 293.8 282.107 294.125 281.403 294.36C280.699 294.584 279.915 294.696 279.051 294.696C277.483 294.696 276.091 294.403 274.875 293.816C273.67 293.219 272.721 292.376 272.027 291.288C271.345 290.189 271.003 288.888 271.003 287.384C271.003 285.869 271.366 284.52 272.091 283.336C272.817 282.152 273.83 281.224 275.131 280.552C276.433 279.88 277.958 279.544 279.707 279.544C281.67 279.544 283.361 280.013 284.779 280.952C286.209 281.88 287.302 283.203 288.059 284.92C288.827 286.627 289.211 288.637 289.211 290.952C289.211 293.715 288.817 296.019 288.027 297.864C287.249 299.699 286.129 301.075 284.667 301.992C283.206 302.899 281.462 303.352 279.435 303.352ZM279.851 290.984C280.502 290.984 281.131 290.84 281.739 290.552C282.358 290.253 282.865 289.88 283.259 289.432C283.654 288.984 283.851 288.52 283.851 288.04C283.862 287.005 283.697 286.12 283.355 285.384C283.025 284.637 282.555 284.067 281.947 283.672C281.35 283.277 280.651 283.08 279.851 283.08C279.115 283.08 278.459 283.251 277.883 283.592C277.307 283.933 276.854 284.413 276.523 285.032C276.193 285.651 276.027 286.365 276.027 287.176C276.027 288.381 276.379 289.32 277.083 289.992C277.787 290.653 278.71 290.984 279.851 290.984Z" fill="white"/>
</g>
</g>
<g clip-path="url(#clip1_4005_3)">
<g filter="url(#filter1_d_4005_3)">
<rect x="139" y="329" width="218" height="87" rx="5" fill="#FBFCFE"/>
</g>
<g clip-path="url(#clip2_4005_3)">
<path d="M155.81 355V347.77H158.47C158.997 347.77 159.468 347.862 159.885 348.045C160.302 348.225 160.63 348.492 160.87 348.845C161.113 349.198 161.235 349.63 161.235 350.14C161.235 350.62 161.128 351.03 160.915 351.37C160.702 351.71 160.402 351.97 160.015 352.15C159.632 352.33 159.18 352.42 158.66 352.42H157.28V355H155.81ZM157.265 351.29H158.62C158.987 351.29 159.287 351.173 159.52 350.94C159.753 350.703 159.87 350.412 159.87 350.065C159.87 349.705 159.747 349.42 159.5 349.21C159.253 348.997 158.953 348.89 158.6 348.89H157.265V351.29ZM163.512 355.1C163.182 355.1 162.885 355.038 162.622 354.915C162.358 354.792 162.15 354.613 161.997 354.38C161.843 354.143 161.767 353.857 161.767 353.52C161.767 352.953 161.978 352.523 162.402 352.23C162.825 351.933 163.493 351.78 164.407 351.77L165.052 351.76V351.45C165.052 351.213 164.982 351.032 164.842 350.905C164.705 350.775 164.492 350.712 164.202 350.715C163.988 350.718 163.785 350.768 163.592 350.865C163.402 350.962 163.272 351.13 163.202 351.37H161.987C162.007 350.997 162.115 350.69 162.312 350.45C162.508 350.207 162.775 350.027 163.112 349.91C163.452 349.79 163.837 349.73 164.267 349.73C164.797 349.73 165.222 349.797 165.542 349.93C165.862 350.06 166.093 350.248 166.237 350.495C166.38 350.738 166.452 351.028 166.452 351.365V355H165.232L165.112 354.11C164.935 354.483 164.713 354.742 164.447 354.885C164.183 355.028 163.872 355.1 163.512 355.1ZM164.002 354.14C164.135 354.14 164.263 354.117 164.387 354.07C164.513 354.02 164.625 353.955 164.722 353.875C164.822 353.792 164.902 353.698 164.962 353.595C165.022 353.492 165.052 353.385 165.052 353.275V352.51L164.527 352.52C164.283 352.523 164.057 352.553 163.847 352.61C163.637 352.663 163.467 352.752 163.337 352.875C163.21 352.998 163.147 353.165 163.147 353.375C163.147 353.615 163.23 353.803 163.397 353.94C163.563 354.073 163.765 354.14 164.002 354.14ZM168.364 356.65C168.01 356.65 167.76 356.62 167.614 356.56C167.47 356.503 167.399 356.475 167.399 356.475V355.545L167.909 355.565C168.132 355.578 168.312 355.567 168.449 355.53C168.585 355.497 168.689 355.452 168.759 355.395C168.832 355.338 168.884 355.278 168.914 355.215C168.944 355.155 168.965 355.107 168.979 355.07L169.074 354.785L167.064 349.83H168.509L169.749 353.2L171.004 349.83H172.429L170.334 355.03C170.154 355.47 169.964 355.807 169.764 356.04C169.564 356.273 169.347 356.433 169.114 356.52C168.884 356.607 168.634 356.65 168.364 356.65ZM172.228 355L174.818 347.77H176.358L178.943 355H177.488L176.898 353.325H174.298L173.693 355H172.228ZM174.623 352.05H176.548L175.593 349.18L174.623 352.05ZM180.029 355V347.77H182.689C183.215 347.77 183.687 347.862 184.104 348.045C184.52 348.225 184.849 348.492 185.089 348.845C185.332 349.198 185.454 349.63 185.454 350.14C185.454 350.62 185.347 351.03 185.134 351.37C184.92 351.71 184.62 351.97 184.234 352.15C183.85 352.33 183.399 352.42 182.879 352.42H181.499V355H180.029ZM181.484 351.29H182.839C183.205 351.29 183.505 351.173 183.739 350.94C183.972 350.703 184.089 350.412 184.089 350.065C184.089 349.705 183.965 349.42 183.719 349.21C183.472 348.997 183.172 348.89 182.819 348.89H181.484V351.29ZM186.552 347.77H188.007V355H186.552V347.77Z" fill="#BA4270"/>
<path opacity="0.5" d="M302.609 353.295C302.609 353.678 302.566 354.005 302.479 354.275C302.392 354.545 302.237 354.75 302.014 354.89C301.794 355.03 301.481 355.1 301.074 355.1C300.817 355.1 300.576 355.07 300.349 355.01C300.126 354.95 299.977 354.905 299.904 354.875L299.969 353.99C300.072 354.027 300.191 354.073 300.324 354.13C300.461 354.183 300.629 354.21 300.829 354.21C301.156 354.21 301.379 354.12 301.499 353.94C301.622 353.76 301.684 353.457 301.684 353.03V347.77H302.609V353.295ZM306.041 355.1C305.771 355.097 305.516 355.058 305.276 354.985C305.039 354.908 304.829 354.797 304.646 354.65C304.462 354.503 304.317 354.322 304.211 354.105C304.107 353.885 304.056 353.63 304.056 353.34V349.83H304.981V353.245C304.981 353.582 305.084 353.855 305.291 354.065C305.501 354.275 305.816 354.38 306.236 354.38C306.616 354.38 306.921 354.282 307.151 354.085C307.384 353.885 307.501 353.588 307.501 353.195V349.83H308.421V355H307.686L307.591 354.01C307.527 354.27 307.419 354.48 307.266 354.64C307.116 354.8 306.934 354.918 306.721 354.995C306.511 355.068 306.284 355.103 306.041 355.1ZM311.698 355.1C311.338 355.1 311.003 355.045 310.693 354.935C310.387 354.822 310.132 354.647 309.928 354.41C309.725 354.17 309.597 353.865 309.543 353.495H310.383C310.43 353.698 310.513 353.868 310.633 354.005C310.757 354.138 310.91 354.24 311.093 354.31C311.277 354.377 311.477 354.41 311.693 354.41C312.04 354.41 312.32 354.345 312.533 354.215C312.747 354.085 312.853 353.885 312.853 353.615C312.853 353.425 312.797 353.273 312.683 353.16C312.573 353.043 312.402 352.958 312.168 352.905L311.098 352.64C310.682 352.54 310.348 352.383 310.098 352.17C309.848 351.957 309.723 351.658 309.723 351.275C309.72 350.972 309.792 350.705 309.938 350.475C310.085 350.245 310.305 350.063 310.598 349.93C310.892 349.797 311.257 349.73 311.693 349.73C312.253 349.73 312.705 349.857 313.048 350.11C313.395 350.36 313.575 350.728 313.588 351.215H312.773C312.74 350.968 312.628 350.773 312.438 350.63C312.252 350.483 312 350.41 311.683 350.41C311.353 350.41 311.085 350.477 310.878 350.61C310.672 350.74 310.568 350.943 310.568 351.22C310.568 351.403 310.642 351.548 310.788 351.655C310.935 351.758 311.152 351.845 311.438 351.915L312.473 352.175C312.713 352.238 312.91 352.322 313.063 352.425C313.22 352.528 313.343 352.643 313.433 352.77C313.527 352.897 313.592 353.03 313.628 353.17C313.668 353.307 313.688 353.438 313.688 353.565C313.688 353.882 313.608 354.155 313.448 354.385C313.292 354.612 313.065 354.788 312.768 354.915C312.475 355.038 312.118 355.1 311.698 355.1ZM317.5 350.505H316.335V353.72C316.335 353.903 316.353 354.038 316.39 354.125C316.43 354.208 316.495 354.262 316.585 354.285C316.678 354.308 316.805 354.32 316.965 354.32H317.53V354.94C317.466 354.963 317.37 354.983 317.24 355C317.113 355.017 316.955 355.025 316.765 355.025C316.408 355.025 316.131 354.977 315.935 354.88C315.738 354.783 315.6 354.64 315.52 354.45C315.443 354.26 315.405 354.027 315.405 353.75V350.505H314.565V349.83H315.43L315.655 348.325H316.335V349.825H317.5V350.505ZM326.028 347.77H326.953V355H326.128L322.248 349.3V355H321.323V347.77H322.208L326.028 353.39V347.77ZM330.659 355.1C330.182 355.1 329.765 354.998 329.409 354.795C329.052 354.588 328.775 354.287 328.579 353.89C328.382 353.493 328.284 353.008 328.284 352.435C328.284 351.895 328.375 351.422 328.559 351.015C328.742 350.608 329.01 350.293 329.364 350.07C329.72 349.843 330.152 349.73 330.659 349.73C331.135 349.73 331.549 349.835 331.899 350.045C332.252 350.252 332.525 350.557 332.719 350.96C332.912 351.363 333.009 351.855 333.009 352.435C333.009 352.962 332.919 353.425 332.739 353.825C332.562 354.225 332.299 354.538 331.949 354.765C331.602 354.988 331.172 355.1 330.659 355.1ZM330.659 354.37C330.969 354.37 331.23 354.292 331.444 354.135C331.657 353.978 331.819 353.753 331.929 353.46C332.039 353.167 332.094 352.818 332.094 352.415C332.094 352.045 332.045 351.713 331.949 351.42C331.852 351.123 331.697 350.888 331.484 350.715C331.274 350.542 330.999 350.455 330.659 350.455C330.345 350.455 330.08 350.533 329.864 350.69C329.647 350.843 329.482 351.067 329.369 351.36C329.259 351.653 329.204 352.005 329.204 352.415C329.204 352.778 329.254 353.108 329.354 353.405C329.454 353.702 329.61 353.937 329.824 354.11C330.037 354.283 330.315 354.37 330.659 354.37ZM340.833 349.83L339.268 355H338.358L337.178 351.185L336.058 355H335.153L333.558 349.83H334.413L335.598 353.805H335.678L336.843 349.83H337.543L338.753 353.795H338.833L339.968 349.83H340.833Z" fill="#36536B"/>
</g>
<path d="M155.23 364.62V363.77H160.7V364.62H158.495V371H157.565V364.62H155.23ZM161.703 371V363.57H162.603V366.59C162.689 366.447 162.806 366.313 162.953 366.19C163.099 366.063 163.278 365.962 163.488 365.885C163.698 365.805 163.941 365.765 164.218 365.765C164.554 365.765 164.859 365.828 165.133 365.955C165.406 366.078 165.623 366.255 165.783 366.485C165.943 366.715 166.023 366.988 166.023 367.305V371H165.098V367.49C165.098 367.18 164.991 366.942 164.778 366.775C164.568 366.605 164.293 366.52 163.953 366.52C163.723 366.52 163.506 366.558 163.303 366.635C163.099 366.708 162.934 366.822 162.808 366.975C162.684 367.125 162.623 367.317 162.623 367.55V371H161.703ZM168.124 368.63C168.124 368.957 168.178 369.253 168.284 369.52C168.394 369.783 168.559 369.993 168.779 370.15C169.003 370.307 169.281 370.385 169.614 370.385C169.944 370.385 170.228 370.308 170.464 370.155C170.704 370.002 170.858 369.78 170.924 369.49H171.799C171.736 369.84 171.596 370.135 171.379 370.375C171.163 370.615 170.901 370.797 170.594 370.92C170.288 371.04 169.968 371.1 169.634 371.1C169.151 371.1 168.726 370.995 168.359 370.785C167.993 370.575 167.706 370.273 167.499 369.88C167.293 369.487 167.189 369.015 167.189 368.465C167.189 367.922 167.283 367.445 167.469 367.035C167.656 366.625 167.926 366.305 168.279 366.075C168.636 365.845 169.064 365.73 169.564 365.73C170.051 365.73 170.463 365.835 170.799 366.045C171.136 366.255 171.391 366.552 171.564 366.935C171.741 367.315 171.829 367.767 171.829 368.29V368.63H168.124ZM168.129 368.005H170.939C170.939 367.708 170.889 367.442 170.789 367.205C170.689 366.965 170.536 366.777 170.329 366.64C170.126 366.5 169.869 366.43 169.559 366.43C169.236 366.43 168.968 366.508 168.754 366.665C168.544 366.818 168.386 367.017 168.279 367.26C168.176 367.5 168.126 367.748 168.129 368.005ZM175.335 372.61V365.83H176.255L176.265 366.73C176.325 366.623 176.402 366.512 176.495 366.395C176.592 366.278 176.709 366.17 176.845 366.07C176.985 365.97 177.147 365.888 177.33 365.825C177.517 365.762 177.729 365.73 177.965 365.73C178.379 365.73 178.742 365.825 179.055 366.015C179.372 366.202 179.619 366.488 179.795 366.875C179.972 367.262 180.06 367.752 180.06 368.345C180.06 368.938 179.974 369.44 179.8 369.85C179.63 370.257 179.384 370.567 179.06 370.78C178.737 370.993 178.347 371.1 177.89 371.1C177.66 371.1 177.455 371.067 177.275 371C177.099 370.937 176.944 370.853 176.81 370.75C176.68 370.643 176.57 370.53 176.48 370.41C176.394 370.29 176.322 370.175 176.265 370.065V372.61H175.335ZM177.715 370.38C178.142 370.38 178.49 370.218 178.76 369.895C179.03 369.568 179.165 369.062 179.165 368.375C179.165 367.785 179.042 367.317 178.795 366.97C178.549 366.623 178.189 366.45 177.715 366.45C177.235 366.45 176.872 366.628 176.625 366.985C176.379 367.338 176.255 367.802 176.255 368.375C176.255 368.745 176.31 369.082 176.42 369.385C176.53 369.688 176.694 369.93 176.91 370.11C177.127 370.29 177.395 370.38 177.715 370.38ZM182.634 371.1C182.301 371.1 182.006 371.042 181.749 370.925C181.493 370.805 181.291 370.633 181.144 370.41C181.001 370.187 180.929 369.917 180.929 369.6C180.929 369.027 181.129 368.6 181.529 368.32C181.929 368.04 182.571 367.89 183.454 367.87L184.379 367.845V367.44C184.379 367.123 184.284 366.873 184.094 366.69C183.904 366.503 183.609 366.41 183.209 366.41C182.913 366.413 182.651 366.483 182.424 366.62C182.201 366.757 182.056 366.98 181.989 367.29H181.174C181.194 366.953 181.289 366.67 181.459 366.44C181.629 366.207 181.866 366.03 182.169 365.91C182.476 365.79 182.838 365.73 183.254 365.73C183.704 365.73 184.078 365.793 184.374 365.92C184.674 366.047 184.898 366.233 185.044 366.48C185.194 366.727 185.269 367.03 185.269 367.39V371H184.479L184.414 370.03C184.214 370.433 183.959 370.713 183.649 370.87C183.343 371.023 183.004 371.1 182.634 371.1ZM182.914 370.435C183.088 370.435 183.259 370.403 183.429 370.34C183.603 370.277 183.761 370.192 183.904 370.085C184.048 369.975 184.161 369.853 184.244 369.72C184.331 369.583 184.376 369.443 184.379 369.3V368.415L183.609 368.43C183.216 368.437 182.886 368.477 182.619 368.55C182.356 368.623 182.158 368.738 182.024 368.895C181.894 369.052 181.829 369.257 181.829 369.51C181.829 369.8 181.929 370.027 182.129 370.19C182.333 370.353 182.594 370.435 182.914 370.435ZM187.193 372.65C186.89 372.65 186.681 372.628 186.568 372.585C186.455 372.542 186.398 372.52 186.398 372.52V371.92L186.923 371.93C187.116 371.937 187.276 371.923 187.403 371.89C187.53 371.857 187.631 371.812 187.708 371.755C187.785 371.698 187.843 371.635 187.883 371.565C187.926 371.495 187.961 371.428 187.988 371.365L188.168 370.875L186.148 365.83H187.083L188.608 369.82L190.123 365.83H191.028L188.848 371.39C188.715 371.717 188.565 371.972 188.398 372.155C188.235 372.338 188.051 372.467 187.848 372.54C187.648 372.613 187.43 372.65 187.193 372.65ZM192.015 371V365.83H192.905V366.58C193.048 366.353 193.245 366.155 193.495 365.985C193.745 365.815 194.07 365.73 194.47 365.73C194.657 365.73 194.847 365.762 195.04 365.825C195.237 365.888 195.417 365.983 195.58 366.11C195.743 366.237 195.87 366.392 195.96 366.575C196.12 366.322 196.337 366.118 196.61 365.965C196.883 365.808 197.192 365.73 197.535 365.73C197.715 365.73 197.903 365.758 198.1 365.815C198.297 365.868 198.478 365.965 198.645 366.105C198.815 366.242 198.953 366.433 199.06 366.68C199.167 366.923 199.22 367.237 199.22 367.62V371H198.29V367.71C198.29 367.397 198.24 367.155 198.14 366.985C198.04 366.812 197.908 366.69 197.745 366.62C197.585 366.55 197.413 366.515 197.23 366.515C197.07 366.515 196.9 366.547 196.72 366.61C196.54 366.673 196.387 366.78 196.26 366.93C196.133 367.08 196.07 367.285 196.07 367.545V371H195.15V367.44C195.15 367.237 195.095 367.067 194.985 366.93C194.878 366.793 194.743 366.69 194.58 366.62C194.42 366.55 194.26 366.515 194.1 366.515C193.923 366.515 193.745 366.55 193.565 366.62C193.388 366.69 193.238 366.802 193.115 366.955C192.995 367.105 192.935 367.302 192.935 367.545V371H192.015ZM201.327 368.63C201.327 368.957 201.381 369.253 201.487 369.52C201.597 369.783 201.762 369.993 201.982 370.15C202.206 370.307 202.484 370.385 202.817 370.385C203.147 370.385 203.431 370.308 203.667 370.155C203.907 370.002 204.061 369.78 204.127 369.49H205.002C204.939 369.84 204.799 370.135 204.582 370.375C204.366 370.615 204.104 370.797 203.797 370.92C203.491 371.04 203.171 371.1 202.837 371.1C202.354 371.1 201.929 370.995 201.562 370.785C201.196 370.575 200.909 370.273 200.702 369.88C200.496 369.487 200.392 369.015 200.392 368.465C200.392 367.922 200.486 367.445 200.672 367.035C200.859 366.625 201.129 366.305 201.482 366.075C201.839 365.845 202.267 365.73 202.767 365.73C203.254 365.73 203.666 365.835 204.002 366.045C204.339 366.255 204.594 366.552 204.767 366.935C204.944 367.315 205.032 367.767 205.032 368.29V368.63H201.327ZM201.332 368.005H204.142C204.142 367.708 204.092 367.442 203.992 367.205C203.892 366.965 203.739 366.777 203.532 366.64C203.329 366.5 203.072 366.43 202.762 366.43C202.439 366.43 202.171 366.508 201.957 366.665C201.747 366.818 201.589 367.017 201.482 367.26C201.379 367.5 201.329 367.748 201.332 368.005ZM206.302 371V365.83H207.197V366.58C207.28 366.437 207.395 366.302 207.542 366.175C207.692 366.048 207.872 365.947 208.082 365.87C208.295 365.793 208.54 365.755 208.817 365.755C209.144 365.755 209.444 365.82 209.717 365.95C209.994 366.08 210.214 366.283 210.377 366.56C210.544 366.833 210.627 367.187 210.627 367.62V371H209.702V367.71C209.702 367.307 209.595 367.008 209.382 366.815C209.172 366.618 208.899 366.52 208.562 366.52C208.329 366.52 208.11 366.558 207.907 366.635C207.704 366.708 207.539 366.822 207.412 366.975C207.285 367.125 207.222 367.315 207.222 367.545V371H206.302ZM214.456 366.505H213.291V369.72C213.291 369.903 213.309 370.038 213.346 370.125C213.386 370.208 213.451 370.262 213.541 370.285C213.634 370.308 213.761 370.32 213.921 370.32H214.486V370.94C214.423 370.963 214.326 370.983 214.196 371C214.069 371.017 213.911 371.025 213.721 371.025C213.364 371.025 213.088 370.977 212.891 370.88C212.694 370.783 212.556 370.64 212.476 370.45C212.399 370.26 212.361 370.027 212.361 369.75V366.505H211.521V365.83H212.386L212.611 364.325H213.291V365.825H214.456V366.505ZM218.089 371V363.57H218.989V366.59C219.076 366.447 219.193 366.313 219.339 366.19C219.486 366.063 219.664 365.962 219.874 365.885C220.084 365.805 220.328 365.765 220.604 365.765C220.941 365.765 221.246 365.828 221.519 365.955C221.793 366.078 222.009 366.255 222.169 366.485C222.329 366.715 222.409 366.988 222.409 367.305V371H221.484V367.49C221.484 367.18 221.378 366.942 221.164 366.775C220.954 366.605 220.679 366.52 220.339 366.52C220.109 366.52 219.893 366.558 219.689 366.635C219.486 366.708 219.321 366.822 219.194 366.975C219.071 367.125 219.009 367.317 219.009 367.55V371H218.089ZM225.261 371.1C224.928 371.1 224.633 371.042 224.376 370.925C224.12 370.805 223.918 370.633 223.771 370.41C223.628 370.187 223.556 369.917 223.556 369.6C223.556 369.027 223.756 368.6 224.156 368.32C224.556 368.04 225.198 367.89 226.081 367.87L227.006 367.845V367.44C227.006 367.123 226.911 366.873 226.721 366.69C226.531 366.503 226.236 366.41 225.836 366.41C225.54 366.413 225.278 366.483 225.051 366.62C224.828 366.757 224.683 366.98 224.616 367.29H223.801C223.821 366.953 223.916 366.67 224.086 366.44C224.256 366.207 224.493 366.03 224.796 365.91C225.103 365.79 225.465 365.73 225.881 365.73C226.331 365.73 226.705 365.793 227.001 365.92C227.301 366.047 227.525 366.233 227.671 366.48C227.821 366.727 227.896 367.03 227.896 367.39V371H227.106L227.041 370.03C226.841 370.433 226.586 370.713 226.276 370.87C225.97 371.023 225.631 371.1 225.261 371.1ZM225.541 370.435C225.715 370.435 225.886 370.403 226.056 370.34C226.23 370.277 226.388 370.192 226.531 370.085C226.675 369.975 226.788 369.853 226.871 369.72C226.958 369.583 227.003 369.443 227.006 369.3V368.415L226.236 368.43C225.843 368.437 225.513 368.477 225.246 368.55C224.983 368.623 224.785 368.738 224.651 368.895C224.521 369.052 224.456 369.257 224.456 369.51C224.456 369.8 224.556 370.027 224.756 370.19C224.96 370.353 225.221 370.435 225.541 370.435ZM231.223 371.1C230.863 371.1 230.528 371.045 230.218 370.935C229.911 370.822 229.656 370.647 229.453 370.41C229.25 370.17 229.121 369.865 229.068 369.495H229.908C229.955 369.698 230.038 369.868 230.158 370.005C230.281 370.138 230.435 370.24 230.618 370.31C230.801 370.377 231.001 370.41 231.218 370.41C231.565 370.41 231.845 370.345 232.058 370.215C232.271 370.085 232.378 369.885 232.378 369.615C232.378 369.425 232.321 369.273 232.208 369.16C232.098 369.043 231.926 368.958 231.693 368.905L230.623 368.64C230.206 368.54 229.873 368.383 229.623 368.17C229.373 367.957 229.248 367.658 229.248 367.275C229.245 366.972 229.316 366.705 229.463 366.475C229.61 366.245 229.83 366.063 230.123 365.93C230.416 365.797 230.781 365.73 231.218 365.73C231.778 365.73 232.23 365.857 232.573 366.11C232.92 366.36 233.1 366.728 233.113 367.215H232.298C232.265 366.968 232.153 366.773 231.963 366.63C231.776 366.483 231.525 366.41 231.208 366.41C230.878 366.41 230.61 366.477 230.403 366.61C230.196 366.74 230.093 366.943 230.093 367.22C230.093 367.403 230.166 367.548 230.313 367.655C230.46 367.758 230.676 367.845 230.963 367.915L231.998 368.175C232.238 368.238 232.435 368.322 232.588 368.425C232.745 368.528 232.868 368.643 232.958 368.77C233.051 368.897 233.116 369.03 233.153 369.17C233.193 369.307 233.213 369.438 233.213 369.565C233.213 369.882 233.133 370.155 232.973 370.385C232.816 370.612 232.59 370.788 232.293 370.915C232 371.038 231.643 371.1 231.223 371.1ZM239.326 371.1C239.023 371.1 238.766 371.06 238.556 370.98C238.349 370.9 238.179 370.798 238.046 370.675C237.913 370.548 237.809 370.42 237.736 370.29C237.663 370.157 237.609 370.04 237.576 369.94L237.476 371H236.771V363.57H237.701V366.65C237.744 366.563 237.809 366.468 237.896 366.365C237.986 366.262 238.101 366.162 238.241 366.065C238.381 365.968 238.546 365.888 238.736 365.825C238.929 365.762 239.149 365.73 239.396 365.73C240.043 365.73 240.556 365.955 240.936 366.405C241.319 366.855 241.511 367.518 241.511 368.395C241.511 368.938 241.429 369.413 241.266 369.82C241.103 370.223 240.859 370.538 240.536 370.765C240.213 370.988 239.809 371.1 239.326 371.1ZM239.161 370.39C239.581 370.39 239.923 370.228 240.186 369.905C240.449 369.578 240.581 369.06 240.581 368.35C240.581 367.747 240.458 367.28 240.211 366.95C239.968 366.617 239.611 366.45 239.141 366.45C238.798 366.45 238.521 366.525 238.311 366.675C238.104 366.822 237.951 367.037 237.851 367.32C237.754 367.603 237.704 367.947 237.701 368.35C237.701 369.073 237.813 369.595 238.036 369.915C238.263 370.232 238.638 370.39 239.161 370.39ZM243.378 368.63C243.378 368.957 243.431 369.253 243.538 369.52C243.648 369.783 243.813 369.993 244.033 370.15C244.256 370.307 244.535 370.385 244.868 370.385C245.198 370.385 245.481 370.308 245.718 370.155C245.958 370.002 246.111 369.78 246.178 369.49H247.053C246.99 369.84 246.85 370.135 246.633 370.375C246.416 370.615 246.155 370.797 245.848 370.92C245.541 371.04 245.221 371.1 244.888 371.1C244.405 371.1 243.98 370.995 243.613 370.785C243.246 370.575 242.96 370.273 242.753 369.88C242.546 369.487 242.443 369.015 242.443 368.465C242.443 367.922 242.536 367.445 242.723 367.035C242.91 366.625 243.18 366.305 243.533 366.075C243.89 365.845 244.318 365.73 244.818 365.73C245.305 365.73 245.716 365.835 246.053 366.045C246.39 366.255 246.645 366.552 246.818 366.935C246.995 367.315 247.083 367.767 247.083 368.29V368.63H243.378ZM243.383 368.005H246.193C246.193 367.708 246.143 367.442 246.043 367.205C245.943 366.965 245.79 366.777 245.583 366.64C245.38 366.5 245.123 366.43 244.813 366.43C244.49 366.43 244.221 366.508 244.008 366.665C243.798 366.818 243.64 367.017 243.533 367.26C243.43 367.5 243.38 367.748 243.383 368.005ZM249.013 368.63C249.013 368.957 249.066 369.253 249.173 369.52C249.283 369.783 249.448 369.993 249.668 370.15C249.891 370.307 250.17 370.385 250.503 370.385C250.833 370.385 251.116 370.308 251.353 370.155C251.593 370.002 251.746 369.78 251.813 369.49H252.688C252.625 369.84 252.485 370.135 252.268 370.375C252.051 370.615 251.79 370.797 251.483 370.92C251.176 371.04 250.856 371.1 250.523 371.1C250.04 371.1 249.615 370.995 249.248 370.785C248.881 370.575 248.595 370.273 248.388 369.88C248.181 369.487 248.078 369.015 248.078 368.465C248.078 367.922 248.171 367.445 248.358 367.035C248.545 366.625 248.815 366.305 249.168 366.075C249.525 365.845 249.953 365.73 250.453 365.73C250.94 365.73 251.351 365.835 251.688 366.045C252.025 366.255 252.28 366.552 252.453 366.935C252.63 367.315 252.718 367.767 252.718 368.29V368.63H249.013ZM249.018 368.005H251.828C251.828 367.708 251.778 367.442 251.678 367.205C251.578 366.965 251.425 366.777 251.218 366.64C251.015 366.5 250.758 366.43 250.448 366.43C250.125 366.43 249.856 366.508 249.643 366.665C249.433 366.818 249.275 367.017 249.168 367.26C249.065 367.5 249.015 367.748 249.018 368.005ZM253.988 371V365.83H254.883V366.58C254.966 366.437 255.081 366.302 255.228 366.175C255.378 366.048 255.558 365.947 255.768 365.87C255.981 365.793 256.226 365.755 256.503 365.755C256.829 365.755 257.129 365.82 257.403 365.95C257.679 366.08 257.899 366.283 258.063 366.56C258.229 366.833 258.313 367.187 258.313 367.62V371H257.388V367.71C257.388 367.307 257.281 367.008 257.068 366.815C256.858 366.618 256.584 366.52 256.248 366.52C256.014 366.52 255.796 366.558 255.593 366.635C255.389 366.708 255.224 366.822 255.098 366.975C254.971 367.125 254.908 367.315 254.908 367.545V371H253.988ZM262.064 372.61V365.83H262.984L262.994 366.73C263.054 366.623 263.13 366.512 263.224 366.395C263.32 366.278 263.437 366.17 263.574 366.07C263.714 365.97 263.875 365.888 264.059 365.825C264.245 365.762 264.457 365.73 264.694 365.73C265.107 365.73 265.47 365.825 265.784 366.015C266.1 366.202 266.347 366.488 266.524 366.875C266.7 367.262 266.789 367.752 266.789 368.345C266.789 368.938 266.702 369.44 266.529 369.85C266.359 370.257 266.112 370.567 265.789 370.78C265.465 370.993 265.075 371.1 264.619 371.1C264.389 371.1 264.184 371.067 264.004 371C263.827 370.937 263.672 370.853 263.539 370.75C263.409 370.643 263.299 370.53 263.209 370.41C263.122 370.29 263.05 370.175 262.994 370.065V372.61H262.064ZM264.444 370.38C264.87 370.38 265.219 370.218 265.489 369.895C265.759 369.568 265.894 369.062 265.894 368.375C265.894 367.785 265.77 367.317 265.524 366.97C265.277 366.623 264.917 366.45 264.444 366.45C263.964 366.45 263.6 366.628 263.354 366.985C263.107 367.338 262.984 367.802 262.984 368.375C262.984 368.745 263.039 369.082 263.149 369.385C263.259 369.688 263.422 369.93 263.639 370.11C263.855 370.29 264.124 370.38 264.444 370.38ZM268.001 371V365.83H268.881V366.825C268.968 366.578 269.09 366.375 269.246 366.215C269.403 366.052 269.581 365.93 269.781 365.85C269.985 365.77 270.195 365.73 270.411 365.73C270.488 365.73 270.563 365.735 270.636 365.745C270.71 365.755 270.766 365.772 270.806 365.795V366.69C270.756 366.667 270.691 366.652 270.611 366.645C270.535 366.635 270.47 366.63 270.416 366.63C270.21 366.617 270.016 366.63 269.836 366.67C269.656 366.707 269.498 366.772 269.361 366.865C269.225 366.958 269.116 367.082 269.036 367.235C268.96 367.385 268.921 367.568 268.921 367.785V371H268.001ZM273.816 371.1C273.339 371.1 272.923 370.998 272.566 370.795C272.209 370.588 271.933 370.287 271.736 369.89C271.539 369.493 271.441 369.008 271.441 368.435C271.441 367.895 271.533 367.422 271.716 367.015C271.899 366.608 272.168 366.293 272.521 366.07C272.878 365.843 273.309 365.73 273.816 365.73C274.293 365.73 274.706 365.835 275.056 366.045C275.409 366.252 275.683 366.557 275.876 366.96C276.069 367.363 276.166 367.855 276.166 368.435C276.166 368.962 276.076 369.425 275.896 369.825C275.719 370.225 275.456 370.538 275.106 370.765C274.759 370.988 274.329 371.1 273.816 371.1ZM273.816 370.37C274.126 370.37 274.388 370.292 274.601 370.135C274.814 369.978 274.976 369.753 275.086 369.46C275.196 369.167 275.251 368.818 275.251 368.415C275.251 368.045 275.203 367.713 275.106 367.42C275.009 367.123 274.854 366.888 274.641 366.715C274.431 366.542 274.156 366.455 273.816 366.455C273.503 366.455 273.238 366.533 273.021 366.69C272.804 366.843 272.639 367.067 272.526 367.36C272.416 367.653 272.361 368.005 272.361 368.415C272.361 368.778 272.411 369.108 272.511 369.405C272.611 369.702 272.768 369.937 272.981 370.11C273.194 370.283 273.473 370.37 273.816 370.37ZM279.436 365.73C279.806 365.73 280.14 365.802 280.436 365.945C280.733 366.085 280.975 366.285 281.161 366.545C281.351 366.805 281.47 367.112 281.516 367.465H280.696C280.666 367.285 280.596 367.12 280.486 366.97C280.38 366.82 280.238 366.7 280.061 366.61C279.885 366.52 279.678 366.475 279.441 366.475C278.998 366.475 278.638 366.635 278.361 366.955C278.085 367.275 277.946 367.765 277.946 368.425C277.946 369.022 278.073 369.5 278.326 369.86C278.583 370.217 278.96 370.395 279.456 370.395C279.693 370.395 279.898 370.35 280.071 370.26C280.248 370.167 280.39 370.045 280.496 369.895C280.603 369.742 280.671 369.578 280.701 369.405H281.506C281.463 369.752 281.346 370.052 281.156 370.305C280.966 370.558 280.723 370.755 280.426 370.895C280.133 371.032 279.803 371.1 279.436 371.1C278.973 371.1 278.561 370.998 278.201 370.795C277.845 370.592 277.565 370.292 277.361 369.895C277.158 369.498 277.056 369.012 277.056 368.435C277.056 367.895 277.148 367.423 277.331 367.02C277.518 366.613 277.788 366.297 278.141 366.07C278.498 365.843 278.93 365.73 279.436 365.73ZM283.427 368.63C283.427 368.957 283.48 369.253 283.587 369.52C283.697 369.783 283.862 369.993 284.082 370.15C284.305 370.307 284.584 370.385 284.917 370.385C285.247 370.385 285.53 370.308 285.767 370.155C286.007 370.002 286.16 369.78 286.227 369.49H287.102C287.039 369.84 286.899 370.135 286.682 370.375C286.465 370.615 286.204 370.797 285.897 370.92C285.59 371.04 285.27 371.1 284.937 371.1C284.454 371.1 284.029 370.995 283.662 370.785C283.295 370.575 283.009 370.273 282.802 369.88C282.595 369.487 282.492 369.015 282.492 368.465C282.492 367.922 282.585 367.445 282.772 367.035C282.959 366.625 283.229 366.305 283.582 366.075C283.939 365.845 284.367 365.73 284.867 365.73C285.354 365.73 285.765 365.835 286.102 366.045C286.439 366.255 286.694 366.552 286.867 366.935C287.044 367.315 287.132 367.767 287.132 368.29V368.63H283.427ZM283.432 368.005H286.242C286.242 367.708 286.192 367.442 286.092 367.205C285.992 366.965 285.839 366.777 285.632 366.64C285.429 366.5 285.172 366.43 284.862 366.43C284.539 366.43 284.27 366.508 284.057 366.665C283.847 366.818 283.689 367.017 283.582 367.26C283.479 367.5 283.429 367.748 283.432 368.005ZM290.198 371.1C289.838 371.1 289.503 371.045 289.193 370.935C288.886 370.822 288.631 370.647 288.428 370.41C288.224 370.17 288.096 369.865 288.043 369.495H288.883C288.929 369.698 289.013 369.868 289.133 370.005C289.256 370.138 289.409 370.24 289.593 370.31C289.776 370.377 289.976 370.41 290.193 370.41C290.539 370.41 290.819 370.345 291.033 370.215C291.246 370.085 291.353 369.885 291.353 369.615C291.353 369.425 291.296 369.273 291.183 369.16C291.073 369.043 290.901 368.958 290.668 368.905L289.598 368.64C289.181 368.54 288.848 368.383 288.598 368.17C288.348 367.957 288.223 367.658 288.223 367.275C288.219 366.972 288.291 366.705 288.438 366.475C288.584 366.245 288.804 366.063 289.098 365.93C289.391 365.797 289.756 365.73 290.193 365.73C290.753 365.73 291.204 365.857 291.548 366.11C291.894 366.36 292.074 366.728 292.088 367.215H291.273C291.239 366.968 291.128 366.773 290.938 366.63C290.751 366.483 290.499 366.41 290.183 366.41C289.853 366.41 289.584 366.477 289.378 366.61C289.171 366.74 289.068 366.943 289.068 367.22C289.068 367.403 289.141 367.548 289.288 367.655C289.434 367.758 289.651 367.845 289.938 367.915L290.973 368.175C291.213 368.238 291.409 368.322 291.563 368.425C291.719 368.528 291.843 368.643 291.933 368.77C292.026 368.897 292.091 369.03 292.128 369.17C292.168 369.307 292.188 369.438 292.188 369.565C292.188 369.882 292.108 370.155 291.948 370.385C291.791 370.612 291.564 370.788 291.268 370.915C290.974 371.038 290.618 371.1 290.198 371.1ZM295.227 371.1C294.867 371.1 294.532 371.045 294.222 370.935C293.915 370.822 293.66 370.647 293.457 370.41C293.254 370.17 293.125 369.865 293.072 369.495H293.912C293.959 369.698 294.042 369.868 294.162 370.005C294.285 370.138 294.439 370.24 294.622 370.31C294.805 370.377 295.005 370.41 295.222 370.41C295.569 370.41 295.849 370.345 296.062 370.215C296.275 370.085 296.382 369.885 296.382 369.615C296.382 369.425 296.325 369.273 296.212 369.16C296.102 369.043 295.93 368.958 295.697 368.905L294.627 368.64C294.21 368.54 293.877 368.383 293.627 368.17C293.377 367.957 293.252 367.658 293.252 367.275C293.249 366.972 293.32 366.705 293.467 366.475C293.614 366.245 293.834 366.063 294.127 365.93C294.42 365.797 294.785 365.73 295.222 365.73C295.782 365.73 296.234 365.857 296.577 366.11C296.924 366.36 297.104 366.728 297.117 367.215H296.302C296.269 366.968 296.157 366.773 295.967 366.63C295.78 366.483 295.529 366.41 295.212 366.41C294.882 366.41 294.614 366.477 294.407 366.61C294.2 366.74 294.097 366.943 294.097 367.22C294.097 367.403 294.17 367.548 294.317 367.655C294.464 367.758 294.68 367.845 294.967 367.915L296.002 368.175C296.242 368.238 296.439 368.322 296.592 368.425C296.749 368.528 296.872 368.643 296.962 368.77C297.055 368.897 297.12 369.03 297.157 369.17C297.197 369.307 297.217 369.438 297.217 369.565C297.217 369.882 297.137 370.155 296.977 370.385C296.82 370.612 296.594 370.788 296.297 370.915C296.004 371.038 295.647 371.1 295.227 371.1ZM299.169 368.63C299.169 368.957 299.222 369.253 299.329 369.52C299.439 369.783 299.604 369.993 299.824 370.15C300.047 370.307 300.326 370.385 300.659 370.385C300.989 370.385 301.272 370.308 301.509 370.155C301.749 370.002 301.902 369.78 301.969 369.49H302.844C302.781 369.84 302.641 370.135 302.424 370.375C302.207 370.615 301.946 370.797 301.639 370.92C301.332 371.04 301.012 371.1 300.679 371.1C300.196 371.1 299.771 370.995 299.404 370.785C299.037 370.575 298.751 370.273 298.544 369.88C298.337 369.487 298.234 369.015 298.234 368.465C298.234 367.922 298.327 367.445 298.514 367.035C298.701 366.625 298.971 366.305 299.324 366.075C299.681 365.845 300.109 365.73 300.609 365.73C301.096 365.73 301.507 365.835 301.844 366.045C302.181 366.255 302.436 366.552 302.609 366.935C302.786 367.315 302.874 367.767 302.874 368.29V368.63H299.169ZM299.174 368.005H301.984C301.984 367.708 301.934 367.442 301.834 367.205C301.734 366.965 301.581 366.777 301.374 366.64C301.171 366.5 300.914 366.43 300.604 366.43C300.281 366.43 300.012 366.508 299.799 366.665C299.589 366.818 299.431 367.017 299.324 367.26C299.221 367.5 299.171 367.748 299.174 368.005ZM306.009 371.1C305.339 371.1 304.807 370.87 304.414 370.41C304.021 369.95 303.824 369.278 303.824 368.395C303.824 367.858 303.902 367.39 304.059 366.99C304.219 366.59 304.456 366.28 304.769 366.06C305.082 365.84 305.472 365.73 305.939 365.73C306.186 365.73 306.404 365.762 306.594 365.825C306.787 365.888 306.954 365.968 307.094 366.065C307.234 366.162 307.347 366.262 307.434 366.365C307.524 366.468 307.591 366.563 307.634 366.65V363.57H308.564V371H307.859L307.759 369.94C307.726 370.04 307.672 370.157 307.599 370.29C307.526 370.42 307.422 370.548 307.289 370.675C307.156 370.798 306.984 370.9 306.774 370.98C306.567 371.06 306.312 371.1 306.009 371.1ZM306.174 370.39C306.697 370.39 307.071 370.232 307.294 369.915C307.521 369.595 307.634 369.073 307.634 368.35C307.631 367.947 307.579 367.603 307.479 367.32C307.382 367.037 307.229 366.822 307.019 366.675C306.812 366.525 306.537 366.45 306.194 366.45C305.767 366.45 305.421 366.602 305.154 366.905C304.887 367.208 304.754 367.69 304.754 368.35C304.754 368.997 304.874 369.498 305.114 369.855C305.357 370.212 305.711 370.39 306.174 370.39ZM309.876 371V369.82H310.976V371H309.876ZM314.048 364.62V363.77H319.518V364.62H317.313V371H316.383V364.62H314.048ZM320.521 371V363.57H321.421V366.59C321.508 366.447 321.624 366.313 321.771 366.19C321.918 366.063 322.096 365.962 322.306 365.885C322.516 365.805 322.759 365.765 323.036 365.765C323.373 365.765 323.678 365.828 323.951 365.955C324.224 366.078 324.441 366.255 324.601 366.485C324.761 366.715 324.841 366.988 324.841 367.305V371H323.916V367.49C323.916 367.18 323.809 366.942 323.596 366.775C323.386 366.605 323.111 366.52 322.771 366.52C322.541 366.52 322.324 366.558 322.121 366.635C321.918 366.708 321.753 366.822 321.626 366.975C321.503 367.125 321.441 367.317 321.441 367.55V371H320.521ZM326.943 368.63C326.943 368.957 326.996 369.253 327.103 369.52C327.213 369.783 327.378 369.993 327.598 370.15C327.821 370.307 328.099 370.385 328.433 370.385C328.763 370.385 329.046 370.308 329.283 370.155C329.523 370.002 329.676 369.78 329.743 369.49H330.618C330.554 369.84 330.414 370.135 330.198 370.375C329.981 370.615 329.719 370.797 329.413 370.92C329.106 371.04 328.786 371.1 328.453 371.1C327.969 371.1 327.544 370.995 327.178 370.785C326.811 370.575 326.524 370.273 326.318 369.88C326.111 369.487 326.008 369.015 326.008 368.465C326.008 367.922 326.101 367.445 326.288 367.035C326.474 366.625 326.744 366.305 327.098 366.075C327.454 365.845 327.883 365.73 328.383 365.73C328.869 365.73 329.281 365.835 329.618 366.045C329.954 366.255 330.209 366.552 330.383 366.935C330.559 367.315 330.648 367.767 330.648 368.29V368.63H326.943ZM326.948 368.005H329.758C329.758 367.708 329.708 367.442 329.608 367.205C329.508 366.965 329.354 366.777 329.148 366.64C328.944 366.5 328.688 366.43 328.378 366.43C328.054 366.43 327.786 366.508 327.573 366.665C327.363 366.818 327.204 367.017 327.098 367.26C326.994 367.5 326.944 367.748 326.948 368.005ZM158.46 380.505H157.295V383.72C157.295 383.903 157.313 384.038 157.35 384.125C157.39 384.208 157.455 384.262 157.545 384.285C157.638 384.308 157.765 384.32 157.925 384.32H158.49V384.94C158.427 384.963 158.33 384.983 158.2 385C158.073 385.017 157.915 385.025 157.725 385.025C157.368 385.025 157.092 384.977 156.895 384.88C156.698 384.783 156.56 384.64 156.48 384.45C156.403 384.26 156.365 384.027 156.365 383.75V380.505H155.525V379.83H156.39L156.615 378.325H157.295V379.825H158.46V380.505ZM161.707 385.1C161.23 385.1 160.813 384.998 160.457 384.795C160.1 384.588 159.823 384.287 159.627 383.89C159.43 383.493 159.332 383.008 159.332 382.435C159.332 381.895 159.423 381.422 159.607 381.015C159.79 380.608 160.058 380.293 160.412 380.07C160.768 379.843 161.2 379.73 161.707 379.73C162.183 379.73 162.597 379.835 162.947 380.045C163.3 380.252 163.573 380.557 163.767 380.96C163.96 381.363 164.057 381.855 164.057 382.435C164.057 382.962 163.967 383.425 163.787 383.825C163.61 384.225 163.347 384.538 162.997 384.765C162.65 384.988 162.22 385.1 161.707 385.1ZM161.707 384.37C162.017 384.37 162.278 384.292 162.492 384.135C162.705 383.978 162.867 383.753 162.977 383.46C163.087 383.167 163.142 382.818 163.142 382.415C163.142 382.045 163.093 381.713 162.997 381.42C162.9 381.123 162.745 380.888 162.532 380.715C162.322 380.542 162.047 380.455 161.707 380.455C161.393 380.455 161.128 380.533 160.912 380.69C160.695 380.843 160.53 381.067 160.417 381.36C160.307 381.653 160.252 382.005 160.252 382.415C160.252 382.778 160.302 383.108 160.402 383.405C160.502 383.702 160.658 383.937 160.872 384.11C161.085 384.283 161.363 384.37 161.707 384.37ZM167.728 380.505H166.563V383.72C166.563 383.903 166.581 384.038 166.618 384.125C166.658 384.208 166.723 384.262 166.813 384.285C166.906 384.308 167.033 384.32 167.193 384.32H167.758V384.94C167.694 384.963 167.598 384.983 167.468 385C167.341 385.017 167.183 385.025 166.993 385.025C166.636 385.025 166.359 384.977 166.163 384.88C165.966 384.783 165.828 384.64 165.748 384.45C165.671 384.26 165.633 384.027 165.633 383.75V380.505H164.793V379.83H165.658L165.883 378.325H166.563V379.825H167.728V380.505ZM170.447 385.1C170.114 385.1 169.819 385.042 169.562 384.925C169.305 384.805 169.104 384.633 168.957 384.41C168.814 384.187 168.742 383.917 168.742 383.6C168.742 383.027 168.942 382.6 169.342 382.32C169.742 382.04 170.384 381.89 171.267 381.87L172.192 381.845V381.44C172.192 381.123 172.097 380.873 171.907 380.69C171.717 380.503 171.422 380.41 171.022 380.41C170.725 380.413 170.464 380.483 170.237 380.62C170.014 380.757 169.869 380.98 169.802 381.29H168.987C169.007 380.953 169.102 380.67 169.272 380.44C169.442 380.207 169.679 380.03 169.982 379.91C170.289 379.79 170.65 379.73 171.067 379.73C171.517 379.73 171.89 379.793 172.187 379.92C172.487 380.047 172.71 380.233 172.857 380.48C173.007 380.727 173.082 381.03 173.082 381.39V385H172.292L172.227 384.03C172.027 384.433 171.772 384.713 171.462 384.87C171.155 385.023 170.817 385.1 170.447 385.1ZM170.727 384.435C170.9 384.435 171.072 384.403 171.242 384.34C171.415 384.277 171.574 384.192 171.717 384.085C171.86 383.975 171.974 383.853 172.057 383.72C172.144 383.583 172.189 383.443 172.192 383.3V382.415L171.422 382.43C171.029 382.437 170.699 382.477 170.432 382.55C170.169 382.623 169.97 382.738 169.837 382.895C169.707 383.052 169.642 383.257 169.642 383.51C169.642 383.8 169.742 384.027 169.942 384.19C170.145 384.353 170.407 384.435 170.727 384.435ZM175.966 385.065C175.686 385.065 175.46 385.027 175.286 384.95C175.116 384.873 174.985 384.77 174.891 384.64C174.801 384.51 174.74 384.362 174.706 384.195C174.676 384.025 174.661 383.85 174.661 383.67V377.57H175.571V383.58C175.571 383.84 175.621 384.035 175.721 384.165C175.825 384.295 175.968 384.367 176.151 384.38L176.431 384.385V384.985C176.355 385.008 176.275 385.027 176.191 385.04C176.108 385.057 176.033 385.065 175.966 385.065ZM181.375 385.1C181.041 385.1 180.746 385.042 180.49 384.925C180.233 384.805 180.031 384.633 179.885 384.41C179.741 384.187 179.67 383.917 179.67 383.6C179.67 383.027 179.87 382.6 180.27 382.32C180.67 382.04 181.311 381.89 182.195 381.87L183.12 381.845V381.44C183.12 381.123 183.025 380.873 182.835 380.69C182.645 380.503 182.35 380.41 181.95 380.41C181.653 380.413 181.391 380.483 181.165 380.62C180.941 380.757 180.796 380.98 180.73 381.29H179.915C179.935 380.953 180.03 380.67 180.2 380.44C180.37 380.207 180.606 380.03 180.91 379.91C181.216 379.79 181.578 379.73 181.995 379.73C182.445 379.73 182.818 379.793 183.115 379.92C183.415 380.047 183.638 380.233 183.785 380.48C183.935 380.727 184.01 381.03 184.01 381.39V385H183.22L183.155 384.03C182.955 384.433 182.7 384.713 182.39 384.87C182.083 385.023 181.745 385.1 181.375 385.1ZM181.655 384.435C181.828 384.435 182 384.403 182.17 384.34C182.343 384.277 182.501 384.192 182.645 384.085C182.788 383.975 182.901 383.853 182.985 383.72C183.071 383.583 183.116 383.443 183.12 383.3V382.415L182.35 382.43C181.956 382.437 181.626 382.477 181.36 382.55C181.096 382.623 180.898 382.738 180.765 382.895C180.635 383.052 180.57 383.257 180.57 383.51C180.57 383.8 180.67 384.027 180.87 384.19C181.073 384.353 181.335 384.435 181.655 384.435ZM185.589 385V379.83H186.479V380.58C186.623 380.353 186.819 380.155 187.069 379.985C187.319 379.815 187.644 379.73 188.044 379.73C188.231 379.73 188.421 379.762 188.614 379.825C188.811 379.888 188.991 379.983 189.154 380.11C189.318 380.237 189.444 380.392 189.534 380.575C189.694 380.322 189.911 380.118 190.184 379.965C190.458 379.808 190.766 379.73 191.109 379.73C191.289 379.73 191.478 379.758 191.674 379.815C191.871 379.868 192.053 379.965 192.219 380.105C192.389 380.242 192.528 380.433 192.634 380.68C192.741 380.923 192.794 381.237 192.794 381.62V385H191.864V381.71C191.864 381.397 191.814 381.155 191.714 380.985C191.614 380.812 191.483 380.69 191.319 380.62C191.159 380.55 190.988 380.515 190.804 380.515C190.644 380.515 190.474 380.547 190.294 380.61C190.114 380.673 189.961 380.78 189.834 380.93C189.708 381.08 189.644 381.285 189.644 381.545V385H188.724V381.44C188.724 381.237 188.669 381.067 188.559 380.93C188.453 380.793 188.318 380.69 188.154 380.62C187.994 380.55 187.834 380.515 187.674 380.515C187.498 380.515 187.319 380.55 187.139 380.62C186.963 380.69 186.813 380.802 186.689 380.955C186.569 381.105 186.509 381.302 186.509 381.545V385H185.589ZM196.297 385.1C195.82 385.1 195.403 384.998 195.047 384.795C194.69 384.588 194.413 384.287 194.217 383.89C194.02 383.493 193.922 383.008 193.922 382.435C193.922 381.895 194.013 381.422 194.197 381.015C194.38 380.608 194.648 380.293 195.002 380.07C195.358 379.843 195.79 379.73 196.297 379.73C196.773 379.73 197.187 379.835 197.537 380.045C197.89 380.252 198.163 380.557 198.357 380.96C198.55 381.363 198.647 381.855 198.647 382.435C198.647 382.962 198.557 383.425 198.377 383.825C198.2 384.225 197.937 384.538 197.587 384.765C197.24 384.988 196.81 385.1 196.297 385.1ZM196.297 384.37C196.607 384.37 196.868 384.292 197.082 384.135C197.295 383.978 197.457 383.753 197.567 383.46C197.677 383.167 197.732 382.818 197.732 382.415C197.732 382.045 197.683 381.713 197.587 381.42C197.49 381.123 197.335 380.888 197.122 380.715C196.912 380.542 196.637 380.455 196.297 380.455C195.983 380.455 195.718 380.533 195.502 380.69C195.285 380.843 195.12 381.067 195.007 381.36C194.897 381.653 194.842 382.005 194.842 382.415C194.842 382.778 194.892 383.108 194.992 383.405C195.092 383.702 195.248 383.937 195.462 384.11C195.675 384.283 195.953 384.37 196.297 384.37ZM201.669 385.1C201.399 385.097 201.144 385.058 200.904 384.985C200.667 384.908 200.457 384.797 200.274 384.65C200.091 384.503 199.946 384.322 199.839 384.105C199.736 383.885 199.684 383.63 199.684 383.34V379.83H200.609V383.245C200.609 383.582 200.712 383.855 200.919 384.065C201.129 384.275 201.444 384.38 201.864 384.38C202.244 384.38 202.549 384.282 202.779 384.085C203.012 383.885 203.129 383.588 203.129 383.195V379.83H204.049V385H203.314L203.219 384.01C203.156 384.27 203.047 384.48 202.894 384.64C202.744 384.8 202.562 384.918 202.349 384.995C202.139 385.068 201.912 385.103 201.669 385.1ZM205.56 385V379.83H206.455V380.58C206.538 380.437 206.653 380.302 206.8 380.175C206.95 380.048 207.13 379.947 207.34 379.87C207.553 379.793 207.798 379.755 208.075 379.755C208.402 379.755 208.702 379.82 208.975 379.95C209.252 380.08 209.472 380.283 209.635 380.56C209.802 380.833 209.885 381.187 209.885 381.62V385H208.96V381.71C208.96 381.307 208.853 381.008 208.64 380.815C208.43 380.618 208.157 380.52 207.82 380.52C207.587 380.52 207.368 380.558 207.165 380.635C206.962 380.708 206.797 380.822 206.67 380.975C206.543 381.125 206.48 381.315 206.48 381.545V385H205.56ZM213.714 380.505H212.549V383.72C212.549 383.903 212.567 384.038 212.604 384.125C212.644 384.208 212.709 384.262 212.799 384.285C212.892 384.308 213.019 384.32 213.179 384.32H213.744V384.94C213.681 384.963 213.584 384.983 213.454 385C213.327 385.017 213.169 385.025 212.979 385.025C212.622 385.025 212.346 384.977 212.149 384.88C211.952 384.783 211.814 384.64 211.734 384.45C211.657 384.26 211.619 384.027 211.619 383.75V380.505H210.779V379.83H211.644L211.869 378.325H212.549V379.825H213.714V380.505ZM219.085 385.1C218.415 385.1 217.883 384.87 217.49 384.41C217.097 383.95 216.9 383.278 216.9 382.395C216.9 381.858 216.978 381.39 217.135 380.99C217.295 380.59 217.532 380.28 217.845 380.06C218.158 379.84 218.548 379.73 219.015 379.73C219.262 379.73 219.48 379.762 219.67 379.825C219.863 379.888 220.03 379.968 220.17 380.065C220.31 380.162 220.423 380.262 220.51 380.365C220.6 380.468 220.667 380.563 220.71 380.65V377.57H221.64V385H220.935L220.835 383.94C220.802 384.04 220.748 384.157 220.675 384.29C220.602 384.42 220.498 384.548 220.365 384.675C220.232 384.798 220.06 384.9 219.85 384.98C219.643 385.06 219.388 385.1 219.085 385.1ZM219.25 384.39C219.773 384.39 220.147 384.232 220.37 383.915C220.597 383.595 220.71 383.073 220.71 382.35C220.707 381.947 220.655 381.603 220.555 381.32C220.458 381.037 220.305 380.822 220.095 380.675C219.888 380.525 219.613 380.45 219.27 380.45C218.843 380.45 218.497 380.602 218.23 380.905C217.963 381.208 217.83 381.69 217.83 382.35C217.83 382.997 217.95 383.498 218.19 383.855C218.433 384.212 218.787 384.39 219.25 384.39ZM223.827 382.63C223.827 382.957 223.881 383.253 223.987 383.52C224.097 383.783 224.262 383.993 224.482 384.15C224.706 384.307 224.984 384.385 225.317 384.385C225.647 384.385 225.931 384.308 226.167 384.155C226.407 384.002 226.561 383.78 226.627 383.49H227.502C227.439 383.84 227.299 384.135 227.082 384.375C226.866 384.615 226.604 384.797 226.297 384.92C225.991 385.04 225.671 385.1 225.337 385.1C224.854 385.1 224.429 384.995 224.062 384.785C223.696 384.575 223.409 384.273 223.202 383.88C222.996 383.487 222.892 383.015 222.892 382.465C222.892 381.922 222.986 381.445 223.172 381.035C223.359 380.625 223.629 380.305 223.982 380.075C224.339 379.845 224.767 379.73 225.267 379.73C225.754 379.73 226.166 379.835 226.502 380.045C226.839 380.255 227.094 380.552 227.267 380.935C227.444 381.315 227.532 381.767 227.532 382.29V382.63H223.827ZM223.832 382.005H226.642C226.642 381.708 226.592 381.442 226.492 381.205C226.392 380.965 226.239 380.777 226.032 380.64C225.829 380.5 225.572 380.43 225.262 380.43C224.939 380.43 224.671 380.508 224.457 380.665C224.247 380.818 224.089 381.017 223.982 381.26C223.879 381.5 223.829 381.748 223.832 382.005ZM230.667 385.1C229.997 385.1 229.465 384.87 229.072 384.41C228.679 383.95 228.482 383.278 228.482 382.395C228.482 381.858 228.56 381.39 228.717 380.99C228.877 380.59 229.114 380.28 229.427 380.06C229.74 379.84 230.13 379.73 230.597 379.73C230.844 379.73 231.062 379.762 231.252 379.825C231.445 379.888 231.612 379.968 231.752 380.065C231.892 380.162 232.005 380.262 232.092 380.365C232.182 380.468 232.249 380.563 232.292 380.65V377.57H233.222V385H232.517L232.417 383.94C232.384 384.04 232.33 384.157 232.257 384.29C232.184 384.42 232.08 384.548 231.947 384.675C231.814 384.798 231.642 384.9 231.432 384.98C231.225 385.06 230.97 385.1 230.667 385.1ZM230.832 384.39C231.355 384.39 231.729 384.232 231.952 383.915C232.179 383.595 232.292 383.073 232.292 382.35C232.289 381.947 232.237 381.603 232.137 381.32C232.04 381.037 231.887 380.822 231.677 380.675C231.47 380.525 231.195 380.45 230.852 380.45C230.425 380.45 230.079 380.602 229.812 380.905C229.545 381.208 229.412 381.69 229.412 382.35C229.412 382.997 229.532 383.498 229.772 383.855C230.015 384.212 230.369 384.39 230.832 384.39ZM236.649 385.1C236.379 385.097 236.124 385.058 235.884 384.985C235.648 384.908 235.438 384.797 235.254 384.65C235.071 384.503 234.926 384.322 234.819 384.105C234.716 383.885 234.664 383.63 234.664 383.34V379.83H235.589V383.245C235.589 383.582 235.693 383.855 235.899 384.065C236.109 384.275 236.424 384.38 236.844 384.38C237.224 384.38 237.529 384.282 237.759 384.085C237.993 383.885 238.109 383.588 238.109 383.195V379.83H239.029V385H238.294L238.199 384.01C238.136 384.27 238.028 384.48 237.874 384.64C237.724 384.8 237.543 384.918 237.329 384.995C237.119 385.068 236.893 385.103 236.649 385.1ZM242.532 379.73C242.902 379.73 243.235 379.802 243.532 379.945C243.829 380.085 244.07 380.285 244.257 380.545C244.447 380.805 244.565 381.112 244.612 381.465H243.792C243.762 381.285 243.692 381.12 243.582 380.97C243.475 380.82 243.334 380.7 243.157 380.61C242.98 380.52 242.774 380.475 242.537 380.475C242.094 380.475 241.734 380.635 241.457 380.955C241.18 381.275 241.042 381.765 241.042 382.425C241.042 383.022 241.169 383.5 241.422 383.86C241.679 384.217 242.055 384.395 242.552 384.395C242.789 384.395 242.994 384.35 243.167 384.26C243.344 384.167 243.485 384.045 243.592 383.895C243.699 383.742 243.767 383.578 243.797 383.405H244.602C244.559 383.752 244.442 384.052 244.252 384.305C244.062 384.558 243.819 384.755 243.522 384.895C243.229 385.032 242.899 385.1 242.532 385.1C242.069 385.1 241.657 384.998 241.297 384.795C240.94 384.592 240.66 384.292 240.457 383.895C240.254 383.498 240.152 383.012 240.152 382.435C240.152 381.895 240.244 381.423 240.427 381.02C240.614 380.613 240.884 380.297 241.237 380.07C241.594 379.843 242.025 379.73 242.532 379.73ZM248.323 380.505H247.158V383.72C247.158 383.903 247.177 384.038 247.213 384.125C247.253 384.208 247.318 384.262 247.408 384.285C247.502 384.308 247.628 384.32 247.788 384.32H248.353V384.94C248.29 384.963 248.193 384.983 248.063 385C247.937 385.017 247.778 385.025 247.588 385.025C247.232 385.025 246.955 384.977 246.758 384.88C246.562 384.783 246.423 384.64 246.343 384.45C246.267 384.26 246.228 384.027 246.228 383.75V380.505H245.388V379.83H246.253L246.478 378.325H247.158V379.825H248.323V380.505ZM250.175 382.63C250.175 382.957 250.228 383.253 250.335 383.52C250.445 383.783 250.61 383.993 250.83 384.15C251.053 384.307 251.332 384.385 251.665 384.385C251.995 384.385 252.278 384.308 252.515 384.155C252.755 384.002 252.908 383.78 252.975 383.49H253.85C253.787 383.84 253.647 384.135 253.43 384.375C253.213 384.615 252.952 384.797 252.645 384.92C252.338 385.04 252.018 385.1 251.685 385.1C251.202 385.1 250.777 384.995 250.41 384.785C250.043 384.575 249.757 384.273 249.55 383.88C249.343 383.487 249.24 383.015 249.24 382.465C249.24 381.922 249.333 381.445 249.52 381.035C249.707 380.625 249.977 380.305 250.33 380.075C250.687 379.845 251.115 379.73 251.615 379.73C252.102 379.73 252.513 379.835 252.85 380.045C253.187 380.255 253.442 380.552 253.615 380.935C253.792 381.315 253.88 381.767 253.88 382.29V382.63H250.175ZM250.18 382.005H252.99C252.99 381.708 252.94 381.442 252.84 381.205C252.74 380.965 252.587 380.777 252.38 380.64C252.177 380.5 251.92 380.43 251.61 380.43C251.287 380.43 251.018 380.508 250.805 380.665C250.595 380.818 250.437 381.017 250.33 381.26C250.227 381.5 250.177 381.748 250.18 382.005ZM257.015 385.1C256.345 385.1 255.813 384.87 255.42 384.41C255.026 383.95 254.83 383.278 254.83 382.395C254.83 381.858 254.908 381.39 255.065 380.99C255.225 380.59 255.461 380.28 255.775 380.06C256.088 379.84 256.478 379.73 256.945 379.73C257.191 379.73 257.41 379.762 257.6 379.825C257.793 379.888 257.96 379.968 258.1 380.065C258.24 380.162 258.353 380.262 258.44 380.365C258.53 380.468 258.596 380.563 258.64 380.65V377.57H259.57V385H258.865L258.765 383.94C258.731 384.04 258.678 384.157 258.605 384.29C258.531 384.42 258.428 384.548 258.295 384.675C258.161 384.798 257.99 384.9 257.78 384.98C257.573 385.06 257.318 385.1 257.015 385.1ZM257.18 384.39C257.703 384.39 258.076 384.232 258.3 383.915C258.526 383.595 258.64 383.073 258.64 382.35C258.636 381.947 258.585 381.603 258.485 381.32C258.388 381.037 258.235 380.822 258.025 380.675C257.818 380.525 257.543 380.45 257.2 380.45C256.773 380.45 256.426 380.602 256.16 380.905C255.893 381.208 255.76 381.69 255.76 382.35C255.76 382.997 255.88 383.498 256.12 383.855C256.363 384.212 256.716 384.39 257.18 384.39ZM266.322 379.83V380.505H265.067V385H264.137V380.505H263.047V379.83H264.137V379.03C264.137 378.62 264.242 378.308 264.452 378.095C264.662 377.878 264.975 377.77 265.392 377.77H266.367L266.372 378.425H265.597C265.387 378.425 265.243 378.482 265.167 378.595C265.09 378.708 265.052 378.88 265.052 379.11V379.83H266.322ZM267.464 385V379.83H268.344V380.825C268.431 380.578 268.553 380.375 268.709 380.215C268.866 380.052 269.044 379.93 269.244 379.85C269.448 379.77 269.658 379.73 269.874 379.73C269.951 379.73 270.026 379.735 270.099 379.745C270.173 379.755 270.229 379.772 270.269 379.795V380.69C270.219 380.667 270.154 380.652 270.074 380.645C269.998 380.635 269.933 380.63 269.879 380.63C269.673 380.617 269.479 380.63 269.299 380.67C269.119 380.707 268.961 380.772 268.824 380.865C268.688 380.958 268.579 381.082 268.499 381.235C268.423 381.385 268.384 381.568 268.384 381.785V385H267.464ZM273.279 385.1C272.802 385.1 272.386 384.998 272.029 384.795C271.672 384.588 271.396 384.287 271.199 383.89C271.002 383.493 270.904 383.008 270.904 382.435C270.904 381.895 270.996 381.422 271.179 381.015C271.362 380.608 271.631 380.293 271.984 380.07C272.341 379.843 272.772 379.73 273.279 379.73C273.756 379.73 274.169 379.835 274.519 380.045C274.872 380.252 275.146 380.557 275.339 380.96C275.532 381.363 275.629 381.855 275.629 382.435C275.629 382.962 275.539 383.425 275.359 383.825C275.182 384.225 274.919 384.538 274.569 384.765C274.222 384.988 273.792 385.1 273.279 385.1ZM273.279 384.37C273.589 384.37 273.851 384.292 274.064 384.135C274.277 383.978 274.439 383.753 274.549 383.46C274.659 383.167 274.714 382.818 274.714 382.415C274.714 382.045 274.666 381.713 274.569 381.42C274.472 381.123 274.317 380.888 274.104 380.715C273.894 380.542 273.619 380.455 273.279 380.455C272.966 380.455 272.701 380.533 272.484 380.69C272.267 380.843 272.102 381.067 271.989 381.36C271.879 381.653 271.824 382.005 271.824 382.415C271.824 382.778 271.874 383.108 271.974 383.405C272.074 383.702 272.231 383.937 272.444 384.11C272.657 384.283 272.936 384.37 273.279 384.37ZM276.839 385V379.83H277.729V380.58C277.873 380.353 278.069 380.155 278.319 379.985C278.569 379.815 278.894 379.73 279.294 379.73C279.481 379.73 279.671 379.762 279.864 379.825C280.061 379.888 280.241 379.983 280.404 380.11C280.568 380.237 280.694 380.392 280.784 380.575C280.944 380.322 281.161 380.118 281.434 379.965C281.708 379.808 282.016 379.73 282.359 379.73C282.539 379.73 282.728 379.758 282.924 379.815C283.121 379.868 283.303 379.965 283.469 380.105C283.639 380.242 283.778 380.433 283.884 380.68C283.991 380.923 284.044 381.237 284.044 381.62V385H283.114V381.71C283.114 381.397 283.064 381.155 282.964 380.985C282.864 380.812 282.733 380.69 282.569 380.62C282.409 380.55 282.238 380.515 282.054 380.515C281.894 380.515 281.724 380.547 281.544 380.61C281.364 380.673 281.211 380.78 281.084 380.93C280.958 381.08 280.894 381.285 280.894 381.545V385H279.974V381.44C279.974 381.237 279.919 381.067 279.809 380.93C279.703 380.793 279.568 380.69 279.404 380.62C279.244 380.55 279.084 380.515 278.924 380.515C278.748 380.515 278.569 380.55 278.389 380.62C278.213 380.69 278.063 380.802 277.939 380.955C277.819 381.105 277.759 381.302 277.759 381.545V385H276.839ZM288.238 386.65C287.935 386.65 287.726 386.628 287.613 386.585C287.5 386.542 287.443 386.52 287.443 386.52V385.92L287.968 385.93C288.161 385.937 288.321 385.923 288.448 385.89C288.575 385.857 288.676 385.812 288.753 385.755C288.83 385.698 288.888 385.635 288.928 385.565C288.971 385.495 289.006 385.428 289.033 385.365L289.213 384.875L287.193 379.83H288.128L289.653 383.82L291.168 379.83H292.073L289.893 385.39C289.76 385.717 289.61 385.972 289.443 386.155C289.28 386.338 289.096 386.467 288.893 386.54C288.693 386.613 288.475 386.65 288.238 386.65ZM294.929 385.1C294.453 385.1 294.036 384.998 293.679 384.795C293.323 384.588 293.046 384.287 292.849 383.89C292.653 383.493 292.554 383.008 292.554 382.435C292.554 381.895 292.646 381.422 292.829 381.015C293.013 380.608 293.281 380.293 293.634 380.07C293.991 379.843 294.423 379.73 294.929 379.73C295.406 379.73 295.819 379.835 296.169 380.045C296.523 380.252 296.796 380.557 296.989 380.96C297.183 381.363 297.279 381.855 297.279 382.435C297.279 382.962 297.189 383.425 297.009 383.825C296.833 384.225 296.569 384.538 296.219 384.765C295.873 384.988 295.443 385.1 294.929 385.1ZM294.929 384.37C295.239 384.37 295.501 384.292 295.714 384.135C295.928 383.978 296.089 383.753 296.199 383.46C296.309 383.167 296.364 382.818 296.364 382.415C296.364 382.045 296.316 381.713 296.219 381.42C296.123 381.123 295.968 380.888 295.754 380.715C295.544 380.542 295.269 380.455 294.929 380.455C294.616 380.455 294.351 380.533 294.134 380.69C293.918 380.843 293.753 381.067 293.639 381.36C293.529 381.653 293.474 382.005 293.474 382.415C293.474 382.778 293.524 383.108 293.624 383.405C293.724 383.702 293.881 383.937 294.094 384.11C294.308 384.283 294.586 384.37 294.929 384.37ZM300.302 385.1C300.032 385.097 299.777 385.058 299.537 384.985C299.3 384.908 299.09 384.797 298.907 384.65C298.723 384.503 298.578 384.322 298.472 384.105C298.368 383.885 298.317 383.63 298.317 383.34V379.83H299.242V383.245C299.242 383.582 299.345 383.855 299.552 384.065C299.762 384.275 300.077 384.38 300.497 384.38C300.877 384.38 301.182 384.282 301.412 384.085C301.645 383.885 301.762 383.588 301.762 383.195V379.83H302.682V385H301.947L301.852 384.01C301.788 384.27 301.68 384.48 301.527 384.64C301.377 384.8 301.195 384.918 300.982 384.995C300.772 385.068 300.545 385.103 300.302 385.1ZM304.193 385V379.83H305.073V380.825C305.159 380.578 305.281 380.375 305.438 380.215C305.594 380.052 305.773 379.93 305.973 379.85C306.176 379.77 306.386 379.73 306.603 379.73C306.679 379.73 306.754 379.735 306.828 379.745C306.901 379.755 306.958 379.772 306.998 379.795V380.69C306.948 380.667 306.883 380.652 306.803 380.645C306.726 380.635 306.661 380.63 306.608 380.63C306.401 380.617 306.208 380.63 306.028 380.67C305.848 380.707 305.689 380.772 305.553 380.865C305.416 380.958 305.308 381.082 305.228 381.235C305.151 381.385 305.113 381.568 305.113 381.785V385H304.193ZM157.195 399.1C156.862 399.1 156.567 399.042 156.31 398.925C156.053 398.805 155.852 398.633 155.705 398.41C155.562 398.187 155.49 397.917 155.49 397.6C155.49 397.027 155.69 396.6 156.09 396.32C156.49 396.04 157.132 395.89 158.015 395.87L158.94 395.845V395.44C158.94 395.123 158.845 394.873 158.655 394.69C158.465 394.503 158.17 394.41 157.77 394.41C157.473 394.413 157.212 394.483 156.985 394.62C156.762 394.757 156.617 394.98 156.55 395.29H155.735C155.755 394.953 155.85 394.67 156.02 394.44C156.19 394.207 156.427 394.03 156.73 393.91C157.037 393.79 157.398 393.73 157.815 393.73C158.265 393.73 158.638 393.793 158.935 393.92C159.235 394.047 159.458 394.233 159.605 394.48C159.755 394.727 159.83 395.03 159.83 395.39V399H159.04L158.975 398.03C158.775 398.433 158.52 398.713 158.21 398.87C157.903 399.023 157.565 399.1 157.195 399.1ZM157.475 398.435C157.648 398.435 157.82 398.403 157.99 398.34C158.163 398.277 158.322 398.192 158.465 398.085C158.608 397.975 158.722 397.853 158.805 397.72C158.892 397.583 158.937 397.443 158.94 397.3V396.415L158.17 396.43C157.777 396.437 157.447 396.477 157.18 396.55C156.917 396.623 156.718 396.738 156.585 396.895C156.455 397.052 156.39 397.257 156.39 397.51C156.39 397.8 156.49 398.027 156.69 398.19C156.893 398.353 157.155 398.435 157.475 398.435ZM163.47 393.73C163.84 393.73 164.173 393.802 164.47 393.945C164.766 394.085 165.008 394.285 165.195 394.545C165.385 394.805 165.503 395.112 165.55 395.465H164.73C164.7 395.285 164.63 395.12 164.52 394.97C164.413 394.82 164.271 394.7 164.095 394.61C163.918 394.52 163.711 394.475 163.475 394.475C163.031 394.475 162.671 394.635 162.395 394.955C162.118 395.275 161.98 395.765 161.98 396.425C161.98 397.022 162.106 397.5 162.36 397.86C162.616 398.217 162.993 398.395 163.49 398.395C163.726 398.395 163.931 398.35 164.105 398.26C164.281 398.167 164.423 398.045 164.53 397.895C164.636 397.742 164.705 397.578 164.735 397.405H165.54C165.496 397.752 165.38 398.052 165.19 398.305C165 398.558 164.756 398.755 164.46 398.895C164.166 399.032 163.836 399.1 163.47 399.1C163.006 399.1 162.595 398.998 162.235 398.795C161.878 398.592 161.598 398.292 161.395 397.895C161.191 397.498 161.09 397.012 161.09 396.435C161.09 395.895 161.181 395.423 161.365 395.02C161.551 394.613 161.821 394.297 162.175 394.07C162.531 393.843 162.963 393.73 163.47 393.73ZM168.86 393.73C169.23 393.73 169.563 393.802 169.86 393.945C170.157 394.085 170.398 394.285 170.585 394.545C170.775 394.805 170.893 395.112 170.94 395.465H170.12C170.09 395.285 170.02 395.12 169.91 394.97C169.803 394.82 169.662 394.7 169.485 394.61C169.308 394.52 169.102 394.475 168.865 394.475C168.422 394.475 168.062 394.635 167.785 394.955C167.508 395.275 167.37 395.765 167.37 396.425C167.37 397.022 167.497 397.5 167.75 397.86C168.007 398.217 168.383 398.395 168.88 398.395C169.117 398.395 169.322 398.35 169.495 398.26C169.672 398.167 169.813 398.045 169.92 397.895C170.027 397.742 170.095 397.578 170.125 397.405H170.93C170.887 397.752 170.77 398.052 170.58 398.305C170.39 398.558 170.147 398.755 169.85 398.895C169.557 399.032 169.227 399.1 168.86 399.1C168.397 399.1 167.985 398.998 167.625 398.795C167.268 398.592 166.988 398.292 166.785 397.895C166.582 397.498 166.48 397.012 166.48 396.435C166.48 395.895 166.572 395.423 166.755 395.02C166.942 394.613 167.212 394.297 167.565 394.07C167.922 393.843 168.353 393.73 168.86 393.73ZM174.246 399.1C173.769 399.1 173.352 398.998 172.996 398.795C172.639 398.588 172.362 398.287 172.166 397.89C171.969 397.493 171.871 397.008 171.871 396.435C171.871 395.895 171.962 395.422 172.146 395.015C172.329 394.608 172.597 394.293 172.951 394.07C173.307 393.843 173.739 393.73 174.246 393.73C174.722 393.73 175.136 393.835 175.486 394.045C175.839 394.252 176.112 394.557 176.306 394.96C176.499 395.363 176.596 395.855 176.596 396.435C176.596 396.962 176.506 397.425 176.326 397.825C176.149 398.225 175.886 398.538 175.536 398.765C175.189 398.988 174.759 399.1 174.246 399.1ZM174.246 398.37C174.556 398.37 174.817 398.292 175.031 398.135C175.244 397.978 175.406 397.753 175.516 397.46C175.626 397.167 175.681 396.818 175.681 396.415C175.681 396.045 175.632 395.713 175.536 395.42C175.439 395.123 175.284 394.888 175.071 394.715C174.861 394.542 174.586 394.455 174.246 394.455C173.932 394.455 173.667 394.533 173.451 394.69C173.234 394.843 173.069 395.067 172.956 395.36C172.846 395.653 172.791 396.005 172.791 396.415C172.791 396.778 172.841 397.108 172.941 397.405C173.041 397.702 173.197 397.937 173.411 398.11C173.624 398.283 173.902 398.37 174.246 398.37ZM179.618 399.1C179.348 399.097 179.093 399.058 178.853 398.985C178.616 398.908 178.406 398.797 178.223 398.65C178.04 398.503 177.895 398.322 177.788 398.105C177.685 397.885 177.633 397.63 177.633 397.34V393.83H178.558V397.245C178.558 397.582 178.661 397.855 178.868 398.065C179.078 398.275 179.393 398.38 179.813 398.38C180.193 398.38 180.498 398.282 180.728 398.085C180.961 397.885 181.078 397.588 181.078 397.195V393.83H181.998V399H181.263L181.168 398.01C181.105 398.27 180.996 398.48 180.843 398.64C180.693 398.8 180.511 398.918 180.298 398.995C180.088 399.068 179.861 399.103 179.618 399.1ZM183.509 399V393.83H184.404V394.58C184.487 394.437 184.602 394.302 184.749 394.175C184.899 394.048 185.079 393.947 185.289 393.87C185.502 393.793 185.747 393.755 186.024 393.755C186.351 393.755 186.651 393.82 186.924 393.95C187.201 394.08 187.421 394.283 187.584 394.56C187.751 394.833 187.834 395.187 187.834 395.62V399H186.909V395.71C186.909 395.307 186.802 395.008 186.589 394.815C186.379 394.618 186.106 394.52 185.769 394.52C185.536 394.52 185.317 394.558 185.114 394.635C184.911 394.708 184.746 394.822 184.619 394.975C184.492 395.125 184.429 395.315 184.429 395.545V399H183.509ZM191.663 394.505H190.498V397.72C190.498 397.903 190.516 398.038 190.553 398.125C190.593 398.208 190.658 398.262 190.748 398.285C190.841 398.308 190.968 398.32 191.128 398.32H191.693V398.94C191.63 398.963 191.533 398.983 191.403 399C191.276 399.017 191.118 399.025 190.928 399.025C190.571 399.025 190.295 398.977 190.098 398.88C189.901 398.783 189.763 398.64 189.683 398.45C189.606 398.26 189.568 398.027 189.568 397.75V394.505H188.728V393.83H189.593L189.818 392.325H190.498V393.825H191.663V394.505ZM196.296 393.83V399H195.401V393.83H196.296ZM196.316 391.775V392.735H195.371V391.775H196.316ZM199.758 399.1C199.398 399.1 199.063 399.045 198.753 398.935C198.447 398.822 198.192 398.647 197.988 398.41C197.785 398.17 197.657 397.865 197.603 397.495H198.443C198.49 397.698 198.573 397.868 198.693 398.005C198.817 398.138 198.97 398.24 199.153 398.31C199.337 398.377 199.537 398.41 199.753 398.41C200.1 398.41 200.38 398.345 200.593 398.215C200.807 398.085 200.913 397.885 200.913 397.615C200.913 397.425 200.857 397.273 200.743 397.16C200.633 397.043 200.462 396.958 200.228 396.905L199.158 396.64C198.742 396.54 198.408 396.383 198.158 396.17C197.908 395.957 197.783 395.658 197.783 395.275C197.78 394.972 197.852 394.705 197.998 394.475C198.145 394.245 198.365 394.063 198.658 393.93C198.952 393.797 199.317 393.73 199.753 393.73C200.313 393.73 200.765 393.857 201.108 394.11C201.455 394.36 201.635 394.728 201.648 395.215H200.833C200.8 394.968 200.688 394.773 200.498 394.63C200.312 394.483 200.06 394.41 199.743 394.41C199.413 394.41 199.145 394.477 198.938 394.61C198.732 394.74 198.628 394.943 198.628 395.22C198.628 395.403 198.702 395.548 198.848 395.655C198.995 395.758 199.212 395.845 199.498 395.915L200.533 396.175C200.773 396.238 200.97 396.322 201.123 396.425C201.28 396.528 201.403 396.643 201.493 396.77C201.587 396.897 201.652 397.03 201.688 397.17C201.728 397.307 201.748 397.438 201.748 397.565C201.748 397.882 201.668 398.155 201.508 398.385C201.352 398.612 201.125 398.788 200.828 398.915C200.535 399.038 200.178 399.1 199.758 399.1ZM210.99 396.245C210.99 396.828 210.895 397.335 210.705 397.765C210.515 398.192 210.206 398.522 209.78 398.755C209.356 398.985 208.795 399.1 208.095 399.1C207.391 399.1 206.828 398.983 206.405 398.75C205.981 398.513 205.675 398.178 205.485 397.745C205.298 397.312 205.205 396.795 205.205 396.195V391.77H206.69V396.305C206.69 396.845 206.82 397.24 207.08 397.49C207.34 397.737 207.678 397.86 208.095 397.86C208.371 397.86 208.616 397.807 208.83 397.7C209.043 397.59 209.21 397.422 209.33 397.195C209.453 396.965 209.515 396.668 209.515 396.305V391.77H210.99V396.245ZM215.156 399.1C214.799 399.1 214.449 399.055 214.106 398.965C213.763 398.875 213.449 398.74 213.166 398.56C212.883 398.38 212.648 398.155 212.461 397.885C212.278 397.615 212.168 397.298 212.131 396.935H213.626C213.676 397.155 213.771 397.34 213.911 397.49C214.051 397.64 214.228 397.755 214.441 397.835C214.654 397.915 214.891 397.955 215.151 397.955C215.418 397.955 215.661 397.922 215.881 397.855C216.101 397.788 216.278 397.688 216.411 397.555C216.544 397.418 216.611 397.248 216.611 397.045C216.611 396.862 216.556 396.712 216.446 396.595C216.339 396.478 216.194 396.383 216.011 396.31C215.828 396.237 215.619 396.177 215.386 396.13L214.136 395.875C213.589 395.772 213.156 395.555 212.836 395.225C212.516 394.892 212.351 394.448 212.341 393.895C212.338 393.442 212.458 393.05 212.701 392.72C212.948 392.387 213.281 392.13 213.701 391.95C214.124 391.77 214.598 391.68 215.121 391.68C215.744 391.68 216.268 391.778 216.691 391.975C217.118 392.168 217.441 392.432 217.661 392.765C217.884 393.095 217.999 393.463 218.006 393.87H216.541C216.514 393.617 216.438 393.415 216.311 393.265C216.184 393.115 216.021 393.007 215.821 392.94C215.624 392.873 215.399 392.84 215.146 392.84C214.953 392.84 214.776 392.862 214.616 392.905C214.459 392.948 214.326 393.01 214.216 393.09C214.106 393.167 214.021 393.258 213.961 393.365C213.901 393.472 213.871 393.592 213.871 393.725C213.871 393.935 213.941 394.105 214.081 394.235C214.221 394.365 214.483 394.472 214.866 394.555L216.106 394.81C216.549 394.897 216.901 395.025 217.161 395.195C217.424 395.365 217.621 395.557 217.751 395.77C217.884 395.983 217.971 396.202 218.011 396.425C218.054 396.645 218.076 396.848 218.076 397.035C218.076 397.425 217.953 397.777 217.706 398.09C217.463 398.4 217.123 398.647 216.686 398.83C216.249 399.01 215.739 399.1 215.156 399.1ZM224.219 399.1C223.352 399.1 222.649 398.927 222.109 398.58C221.569 398.23 221.259 397.692 221.179 396.965L222.699 396.935C222.779 397.265 222.95 397.517 223.214 397.69C223.48 397.86 223.814 397.945 224.214 397.945C224.454 397.945 224.665 397.907 224.849 397.83C225.035 397.75 225.182 397.643 225.289 397.51C225.395 397.373 225.449 397.218 225.449 397.045C225.449 396.778 225.364 396.58 225.194 396.45C225.024 396.317 224.762 396.21 224.409 396.13L223.224 395.875C222.674 395.765 222.232 395.547 221.899 395.22C221.569 394.89 221.4 394.448 221.394 393.895C221.39 393.442 221.512 393.05 221.759 392.72C222.009 392.387 222.347 392.13 222.774 391.95C223.204 391.77 223.685 391.68 224.219 391.68C224.765 391.68 225.237 391.778 225.634 391.975C226.034 392.168 226.34 392.43 226.554 392.76C226.77 393.087 226.875 393.448 226.869 393.845L225.394 393.87C225.347 393.55 225.24 393.298 225.074 393.115C224.907 392.932 224.63 392.84 224.244 392.84C224.044 392.84 223.865 392.862 223.709 392.905C223.552 392.948 223.417 393.01 223.304 393.09C223.19 393.167 223.104 393.258 223.044 393.365C222.987 393.472 222.959 393.592 222.959 393.725C222.959 393.935 223.029 394.102 223.169 394.225C223.312 394.345 223.58 394.457 223.974 394.56L225.139 394.845C225.795 395.002 226.269 395.27 226.559 395.65C226.852 396.03 226.999 396.492 226.999 397.035C226.999 397.452 226.884 397.815 226.654 398.125C226.427 398.435 226.105 398.675 225.689 398.845C225.272 399.015 224.782 399.1 224.219 399.1ZM223.594 390.735H224.859V392.035H223.594V390.735ZM223.569 398.655H224.829V399.955H223.569V398.655ZM229.21 399V393.585H227.92V392.76C228.334 392.76 228.667 392.722 228.92 392.645C229.177 392.565 229.369 392.452 229.495 392.305C229.622 392.155 229.697 391.977 229.72 391.77H230.69V399H229.21ZM234.998 391.67C235.858 391.67 236.536 391.992 237.033 392.635C237.529 393.275 237.778 394.197 237.778 395.4C237.778 396.597 237.533 397.515 237.043 398.155C236.553 398.792 235.871 399.11 234.998 399.11C234.121 399.11 233.436 398.792 232.943 398.155C232.453 397.518 232.208 396.602 232.208 395.405C232.208 394.605 232.321 393.927 232.548 393.37C232.774 392.813 233.096 392.392 233.513 392.105C233.929 391.815 234.424 391.67 234.998 391.67ZM234.998 397.915C235.428 397.915 235.743 397.723 235.943 397.34C236.143 396.953 236.243 396.308 236.243 395.405C236.243 394.482 236.141 393.82 235.938 393.42C235.734 393.02 235.419 392.82 234.993 392.82C234.566 392.82 234.248 393.022 234.038 393.425C233.831 393.828 233.728 394.488 233.728 395.405C233.728 396.305 233.831 396.948 234.038 397.335C234.244 397.722 234.564 397.915 234.998 397.915ZM241.899 391.77H243.334V396.175H244.449V397.4H243.334V399H241.929L241.934 397.4H238.604V396.2L241.899 391.77ZM239.954 396.175H241.934V393.525L239.954 396.175ZM245.231 399V397.41H246.831V399H245.231ZM250.527 399.11C250.077 399.11 249.657 399.023 249.267 398.85C248.877 398.677 248.558 398.433 248.312 398.12C248.065 397.803 247.927 397.433 247.897 397.01H249.287C249.347 397.29 249.48 397.518 249.687 397.695C249.893 397.868 250.153 397.955 250.467 397.955C250.813 397.955 251.117 397.873 251.377 397.71C251.64 397.547 251.837 397.287 251.967 396.93C252.1 396.573 252.147 396.107 252.107 395.53C252.013 395.707 251.883 395.862 251.717 395.995C251.553 396.125 251.362 396.227 251.142 396.3C250.922 396.37 250.677 396.405 250.407 396.405C249.917 396.405 249.482 396.313 249.102 396.13C248.725 395.943 248.428 395.68 248.212 395.34C247.998 394.997 247.892 394.59 247.892 394.12C247.892 393.647 248.005 393.225 248.232 392.855C248.458 392.485 248.775 392.195 249.182 391.985C249.588 391.775 250.065 391.67 250.612 391.67C251.225 391.67 251.753 391.817 252.197 392.11C252.643 392.4 252.985 392.813 253.222 393.35C253.462 393.883 253.582 394.512 253.582 395.235C253.582 396.098 253.458 396.818 253.212 397.395C252.968 397.968 252.618 398.398 252.162 398.685C251.705 398.968 251.16 399.11 250.527 399.11ZM250.657 395.245C250.86 395.245 251.057 395.2 251.247 395.11C251.44 395.017 251.598 394.9 251.722 394.76C251.845 394.62 251.907 394.475 251.907 394.325C251.91 394.002 251.858 393.725 251.752 393.495C251.648 393.262 251.502 393.083 251.312 392.96C251.125 392.837 250.907 392.775 250.657 392.775C250.427 392.775 250.222 392.828 250.042 392.935C249.862 393.042 249.72 393.192 249.617 393.385C249.513 393.578 249.462 393.802 249.462 394.055C249.462 394.432 249.572 394.725 249.792 394.935C250.012 395.142 250.3 395.245 250.657 395.245ZM257.224 391.67C258.084 391.67 258.762 391.992 259.259 392.635C259.756 393.275 260.004 394.197 260.004 395.4C260.004 396.597 259.759 397.515 259.269 398.155C258.779 398.792 258.097 399.11 257.224 399.11C256.347 399.11 255.662 398.792 255.169 398.155C254.679 397.518 254.434 396.602 254.434 395.405C254.434 394.605 254.547 393.927 254.774 393.37C255.001 392.813 255.322 392.392 255.739 392.105C256.156 391.815 256.651 391.67 257.224 391.67ZM257.224 397.915C257.654 397.915 257.969 397.723 258.169 397.34C258.369 396.953 258.469 396.308 258.469 395.405C258.469 394.482 258.367 393.82 258.164 393.42C257.961 393.02 257.646 392.82 257.219 392.82C256.792 392.82 256.474 393.022 256.264 393.425C256.057 393.828 255.954 394.488 255.954 395.405C255.954 396.305 256.057 396.948 256.264 397.335C256.471 397.722 256.791 397.915 257.224 397.915ZM260.989 399V397.82H262.089V399H260.989Z" fill="#36536B"/>
</g>
<defs>
<filter id="filter0_d_4005_3" x="64.5679" y="107.569" width="417.649" height="658.861" filterUnits="userSpaceOnUse" color-interpolation-filters="sRGB">
<feFlood flood-opacity="0" result="BackgroundImageFix"/>
<feColorMatrix in="SourceAlpha" type="matrix" values="0 0 0 0 0 0 0 0 0 0 0 0 0 0 0 0 0 0 127 0" result="hardAlpha"/>
<feOffset dx="25" dy="25"/>
<feGaussianBlur stdDeviation="40"/>
<feColorMatrix type="matrix" values="0 0 0 0 0.212302 0 0 0 0 0.32521 0 0 0 0 0.419299 0 0 0 0.300727 0"/>
<feBlend mode="normal" in2="BackgroundImageFix" result="effect1_dropShadow_4005_3"/>
<feBlend mode="normal" in="SourceGraphic" in2="effect1_dropShadow_4005_3" result="shape"/>
</filter>
<filter id="filter1_d_4005_3" x="134" y="324" width="248" height="117" filterUnits="userSpaceOnUse" color-interpolation-filters="sRGB">
<feFlood flood-opacity="0" result="BackgroundImageFix"/>
<feColorMatrix in="SourceAlpha" type="matrix" values="0 0 0 0 0 0 0 0 0 0 0 0 0 0 0 0 0 0 127 0" result="hardAlpha"/>
<feMorphology radius="10" operator="erode" in="SourceAlpha" result="effect1_dropShadow_4005_3"/>
<feOffset dx="10" dy="10"/>
<feGaussianBlur stdDeviation="12.5"/>
<feColorMatrix type="matrix" values="0 0 0 0 0.212302 0 0 0 0 0.32521 0 0 0 0 0.419299 0 0 0 0.25 0"/>
<feBlend mode="normal" in2="BackgroundImageFix" result="effect1_dropShadow_4005_3"/>
<feBlend mode="normal" in="SourceGraphic" in2="effect1_dropShadow_4005_3" result="shape"/>
</filter>
<linearGradient id="paint0_linear_4005_3" x1="127.015" y1="162" x2="127.015" y2="174.324" gradientUnits="userSpaceOnUse">
<stop stop-color="#454545"/>
<stop offset="0.226279" stop-color="#999999"/>
<stop offset="1" stop-color="white"/>
</linearGradient>
<linearGradient id="paint1_linear_4005_3" x1="377.103" y1="247.747" x2="367.642" y2="247.747" gradientUnits="userSpaceOnUse">
<stop stop-color="white" stop-opacity="0.01"/>
<stop offset="0.222178" stop-color="#BABABA"/>
<stop offset="0.54678" stop-color="white" stop-opacity="0.01"/>
<stop offset="1" stop-color="white" stop-opacity="0.01"/>
</linearGradient>
<linearGradient id="paint2_linear_4005_3" x1="119.568" y1="247.487" x2="129.044" y2="247.487" gradientUnits="userSpaceOnUse">
<stop stop-color="white" stop-opacity="0.01"/>
<stop offset="0.222178" stop-color="#BABABA"/>
<stop offset="0.54678" stop-color="white" stop-opacity="0.01"/>
<stop offset="1" stop-color="white" stop-opacity="0.01"/>
</linearGradient>
<linearGradient id="paint3_linear_4005_3" x1="132.907" y1="174.444" x2="132.907" y2="635.824" gradientUnits="userSpaceOnUse">
<stop stop-color="#9CB6CD"/>
<stop offset="0.420564" stop-color="#9AB3CA"/>
<stop offset="0.716592" stop-color="#557496"/>
<stop offset="1" stop-color="#475178"/>
</linearGradient>
<clipPath id="clip0_4005_3">
<rect width="233" height="465" fill="white" transform="translate(132.074 174.444)"/>
</clipPath>
<clipPath id="clip1_4005_3">
<rect width="218" height="87" fill="white" transform="translate(139 329)"/>
</clipPath>
<clipPath id="clip2_4005_3">
<rect width="187" height="11" fill="white" transform="translate(155 345)"/>
</clipPath>
</defs>
</svg>
